<?xml version="1.0" encoding="iso-8859-1"?>
<!-- Uploaded to: SVG Repo, www.svgrepo.com, Generator: SVG Repo Mixer Tools -->
<svg height="800px" width="800px" version="1.1" id="Layer_1" xmlns="http://www.w3.org/2000/svg" xmlns:xlink="http://www.w3.org/1999/xlink" 
	 viewBox="0 0 512.001 512.001" xml:space="preserve">
<path style="fill:#F1543F;" d="M75.636,436.355c-6.899-6.898-6.899-18.084,0-24.983l104.523-104.523
	c6.898-6.898,18.084-6.898,24.983,0c6.899,6.898,6.899,18.084,0,24.983L100.619,436.355
	C93.719,443.255,82.534,443.254,75.636,436.355z"/>
<path style="fill:#E03E34;" d="M100.619,436.355l104.523-104.522c6.883-6.881,6.896-18.03,0.046-24.931l-129.501,129.5
	C82.589,443.251,93.735,443.239,100.619,436.355z"/>
<path style="fill:#F1543F;" d="M209.632,302.359c-6.899-6.898-6.899-18.084,0-24.983l48.19-48.19c6.898-6.898,18.084-6.898,24.983,0
	c6.899,6.898,6.899,18.084,0,24.983l-48.19,48.19C227.715,309.258,216.53,309.258,209.632,302.359z"/>
<path style="fill:#E03E34;" d="M282.852,229.237l-73.169,73.169c6.903,6.85,18.049,6.837,24.931-0.046l48.19-48.19
	C289.688,247.287,289.701,236.138,282.852,229.237z"/>
<path style="fill:#F1543F;" d="M352.49,159.5c-6.898-6.899-6.898-18.084,0-24.983l48.195-48.194c6.899-6.899,18.084-6.899,24.983,0
	c6.898,6.898,6.898,18.084,0,24.983L377.473,159.5C370.575,166.398,359.39,166.401,352.49,159.5z"/>
<path style="fill:#E03E34;" d="M425.714,86.373l-73.174,73.174c6.905,6.851,18.051,6.834,24.931-0.047l48.195-48.194
	C432.551,104.424,432.564,93.276,425.714,86.373z"/>
<g>
	<path style="fill:#FF7058;" d="M257.815,254.174c-32.989-32.989-32.989-86.668,0-119.658c32.989-32.991,86.668-32.991,119.658,0
		c32.989,32.989,32.989,86.668,0,119.658C344.485,287.163,290.806,287.165,257.815,254.174z"/>
	<path style="fill:#FF7058;" d="M17.24,494.749c-22.987-22.988-22.987-60.391,0-83.377c23.042-23.044,60.335-23.044,83.379,0
		c22.986,22.987,22.987,60.389,0,83.377l0,0C77.631,517.737,40.228,517.737,17.24,494.749z M42.225,436.355
		c-9.211,9.211-9.211,24.2,0,33.411c9.211,9.211,24.2,9.211,33.411,0s9.211-24.2,0-33.411
		C66.402,427.122,51.458,427.12,42.225,436.355z"/>
	<path style="fill:#FF7058;" d="M460.229,135.288c42.64-54.931-28.58-126.177-83.526-83.526
		c-8.584-68.983-109.401-69.022-118.119,0.009c-54.942-42.65-126.247,28.629-83.524,83.518
		c-69.151,8.735-68.898,109.547-0.006,118.119c-42.588,54.9,28.54,126.187,83.531,83.528c8.577,68.898,109.377,69.142,118.117-0.005
		c54.873,42.709,126.18-28.565,83.518-83.524C529.379,244.679,529.128,143.858,460.229,135.288z M400.685,277.38
		c-45.787,45.785-120.288,45.785-166.074,0c-45.787-45.787-45.787-120.288,0-166.074c45.841-45.842,120.175-45.899,166.074,0
		C446.47,157.092,446.47,231.593,400.685,277.38z"/>
</g>
<g>
	<path style="fill:#F1543F;" d="M460.224,253.412c69.161-8.729,68.909-109.549,0.009-118.121
		c21.304-27.445,14.185-58.961-5.125-78.312l-54.375,54.376c45.742,45.79,45.728,120.257-0.044,166.03
		c-45.771,45.77-120.239,45.784-166.03,0.044l-54.379,54.379c19.336,19.316,50.836,26.445,78.309,5.133
		c8.577,68.898,109.377,69.142,118.117-0.005C431.578,379.645,502.886,308.371,460.224,253.412z"/>
	<path style="fill:#F1543F;" d="M377.473,254.174c32.973-32.973,32.988-86.614,0.048-119.607L257.866,254.221
		C290.86,287.163,344.501,287.147,377.473,254.174z"/>
	<path style="fill:#F1543F;" d="M100.666,411.421l-24.984,24.986c9.162,9.216,9.149,24.165-0.046,33.36
		c-9.195,9.195-24.145,9.209-33.36,0.046l-24.984,24.984c22.993,22.939,60.356,22.923,83.328-0.047l0,0
		C123.589,471.779,123.604,434.413,100.666,411.421z"/>
</g>
</svg>