<?xml version="1.0" encoding="utf-8"?>
<!-- Uploaded to: SVG Repo, www.svgrepo.com, Generator: SVG Repo Mixer Tools -->
<svg width="800px" height="800px" viewBox="0 0 1024 1024" class="icon"  version="1.1" xmlns="http://www.w3.org/2000/svg"><path d="M235.52 251.733333l118.613333 15.36-58.026666 112.64-33.28-4.266666z" fill="#FCE4EC" /><path d="M296.106667 396.8h-2.56l-34.133334-4.266667c-6.826667-0.853333-12.8-5.973333-14.506666-13.653333l-26.453334-123.733333c-0.853333-5.12 0-11.093333 4.266667-15.36 3.413333-4.266667 9.386667-5.973333 14.506667-5.12l118.613333 15.36c5.12 0.853333 10.24 4.266667 12.8 9.386666 2.56 5.12 2.56 11.093333 0 15.36l-58.026667 112.64c-1.706667 5.973333-7.68 9.386667-14.506666 9.386667z m-19.626667-36.693333l10.24 1.706666 40.96-80.213333-70.826667-9.386667 19.626667 87.893334z" fill="#EC407A" /><path d="M1006.08 830.293333h-81.066667c-9.386667 0-17.066667-7.68-17.066666-17.066666-1.706667-86.186667-71.68-153.6-157.866667-153.6s-155.306667 67.413333-157.866667 153.6c0 9.386667-7.68 17.066667-17.066666 17.066666h-119.466667c-9.386667 0-17.066667-7.68-17.066667-17.066666-1.706667-86.186667-71.68-153.6-157.866666-153.6s-155.306667 67.413333-157.866667 153.6c0 9.386667-7.68 17.066667-17.066667 17.066666H24.746667c-9.386667 0-17.066667-7.68-17.066667-17.066666v-61.44C7.68 742.4-0.853333 509.44 168.96 375.466667c10.24-7.68 22.186667-15.36 34.986667-21.333334 51.2-24.746667 113.493333-23.04 166.4 3.413334 209.066667 104.96 397.653333 36.693333 488.106666 4.266666 35.84-12.8 50.346667-17.92 62.293334-11.946666 102.4 54.613333 102.4 200.533333 102.4 341.333333v122.88c0 8.533333-7.68 16.213333-17.066667 16.213333z m-64.853333-34.133333h48.64V691.2c0-135.68 0-262.826667-81.92-309.76-6.826667 0.853333-23.04 6.826667-37.546667 11.946667-87.893333 31.573333-292.693333 104.96-514.56-5.973334-43.52-22.186667-94.72-23.04-135.68-2.56-11.093333 5.12-20.48 11.093333-29.013333 17.92C34.133333 525.653333 41.813333 741.546667 41.813333 750.933333v45.226667h48.64c10.24-97.28 91.306667-170.666667 190.293334-170.666667 98.986667 0 180.053333 73.386667 190.293333 170.666667h87.893333c10.24-97.28 91.306667-170.666667 190.293334-170.666667 100.693333 0 180.906667 74.24 192 170.666667z" fill="#EC407A" /><path d="M279.04 830.293333m-102.4 0a102.4 102.4 0 1 0 204.8 0 102.4 102.4 0 1 0-204.8 0Z" fill="#FFFFFF" /><path d="M279.04 949.76c-65.706667 0-119.466667-53.76-119.466667-119.466667s53.76-119.466667 119.466667-119.466666 119.466667 53.76 119.466667 119.466666-53.76 119.466667-119.466667 119.466667z m0-204.8c-46.933333 0-85.333333 38.4-85.333333 85.333333s38.4 85.333333 85.333333 85.333334 85.333333-38.4 85.333333-85.333334-38.4-85.333333-85.333333-85.333333z" fill="#EC407A" /><path d="M279.04 830.293333m-17.066667 0a17.066667 17.066667 0 1 0 34.133334 0 17.066667 17.066667 0 1 0-34.133334 0Z" fill="#FCE4EC" /><path d="M279.04 864.426667c-18.773333 0-34.133333-15.36-34.133333-34.133334s15.36-34.133333 34.133333-34.133333 34.133333 15.36 34.133333 34.133333-15.36 34.133333-34.133333 34.133334z m0-34.133334z" fill="#EC407A" /><path d="M756.906667 830.293333m-102.4 0a102.4 102.4 0 1 0 204.8 0 102.4 102.4 0 1 0-204.8 0Z" fill="#FFFFFF" /><path d="M756.906667 949.76c-65.706667 0-119.466667-53.76-119.466667-119.466667s53.76-119.466667 119.466667-119.466666 119.466667 53.76 119.466666 119.466666-53.76 119.466667-119.466666 119.466667z m0-204.8c-46.933333 0-85.333333 38.4-85.333334 85.333333s38.4 85.333333 85.333334 85.333334 85.333333-38.4 85.333333-85.333334-38.4-85.333333-85.333333-85.333333z" fill="#EC407A" /><path d="M756.906667 830.293333m-17.066667 0a17.066667 17.066667 0 1 0 34.133333 0 17.066667 17.066667 0 1 0-34.133333 0Z" fill="#FCE4EC" /><path d="M756.906667 864.426667c-18.773333 0-34.133333-15.36-34.133334-34.133334s15.36-34.133333 34.133334-34.133333 34.133333 15.36 34.133333 34.133333-15.36 34.133333-34.133333 34.133334z m0-34.133334z" fill="#EC407A" /><path d="M275.001598 266.695568a157.013333 85.333333 18.705 1 0 54.732057-161.652445 157.013333 85.333333 18.705 1 0-54.732057 161.652445Z" fill="#F48FB1" /><path d="M357.546667 298.666667c-28.16 0-58.026667-5.12-87.893334-15.36C177.493333 252.586667 119.466667 185.173333 137.386667 130.56c18.773333-54.613333 104.96-72.533333 197.973333-41.813333 92.16 31.573333 150.186667 98.986667 132.266667 153.6-9.386667 28.16-36.693333 46.933333-75.946667 53.76-11.093333 1.706667-22.186667 2.56-34.133333 2.56z m-110.933334-190.293334c-37.546667 0-69.12 10.24-76.8 33.28-12.8 38.4 47.786667 88.746667 110.08 110.08 36.693333 12.8 74.24 16.213333 104.96 11.093334 26.453333-4.266667 44.373333-16.213333 49.493334-31.573334 12.8-38.4-47.786667-88.746667-110.08-110.08-24.746667-8.533333-52.906667-12.8-77.653334-12.8z" fill="#EC407A" /><path d="M302.421966 209.63498a82.773333 34.133333 18.705 1 0 21.892823-64.660978 82.773333 34.133333 18.705 1 0-21.892823 64.660978Z" fill="#FFFFFF" /><path d="M354.986667 236.373333c-18.773333 0-39.253333-4.266667-58.026667-10.24-23.04-7.68-43.52-18.773333-58.026667-31.573333-24.746667-21.333333-23.04-40.106667-20.48-49.493333 11.093333-33.28 65.706667-32.426667 111.786667-16.213334 23.04 7.68 43.52 18.773333 58.026667 31.573334 24.746667 21.333333 23.04 40.106667 20.48 49.493333-7.68 18.773333-28.16 26.453333-53.76 26.453333z m-104.106667-80.213333c1.706667 5.973333 18.773333 24.746667 56.32 37.546667 37.546667 12.8 62.293333 8.533333 68.266667 4.266666-1.706667-5.973333-18.773333-24.746667-56.32-37.546666-38.4-11.946667-63.146667-8.533333-68.266667-4.266667z m124.586667 42.666667z" fill="#EC407A" /><path d="M961.706667 403.626667h-68.266667L835.413333 307.2c-6.826667-11.946667-6.826667-25.6 0-36.693333l57.173334-96.426667h68.266666l-57.173333 96.426667c-6.826667 11.946667-6.826667 25.6 0 36.693333l58.026667 96.426667z" fill="#F48FB1" /><path d="M961.706667 420.693333h-68.266667c-5.973333 0-11.946667-3.413333-14.506667-8.533333L820.906667 315.733333c-10.24-17.066667-10.24-37.546667 0-54.613333l57.173333-96.426667c3.413333-5.12 8.533333-8.533333 14.506667-8.533333h68.266666c5.973333 0 11.946667 3.413333 14.506667 8.533333 3.413333 5.12 2.56 11.946667 0 17.066667l-57.173333 96.426667c-3.413333 5.973333-3.413333 13.653333 0 19.626666l57.173333 96.426667c3.413333 5.12 3.413333 11.946667 0 17.066667-2.56 6.826667-7.68 9.386667-13.653333 9.386666z m-58.88-34.133333h29.013333l-41.813333-70.826667c-10.24-17.066667-10.24-37.546667 0-54.613333l41.813333-70.826667h-29.013333l-52.053334 88.746667c-3.413333 5.973333-3.413333 13.653333 0 19.626667l52.053334 87.893333z" fill="#EC407A" /><path d="M850.773333 164.693333a68.266667 34.133333 0 1 0 136.533334 0 68.266667 34.133333 0 1 0-136.533334 0Z" fill="#FFFFFF" /><path d="M919.04 215.893333c-48.64 0-85.333333-22.186667-85.333333-51.2s36.693333-51.2 85.333333-51.2 85.333333 22.186667 85.333333 51.2-36.693333 51.2-85.333333 51.2z m0-68.266666c-33.28 0-51.2 12.8-51.2 17.066666s17.92 17.066667 51.2 17.066667 51.2-12.8 51.2-17.066667-18.773333-17.066667-51.2-17.066666z" fill="#EC407A" /><path d="M362.666667 372.053333c-46.933333-23.893333-103.253333-25.6-151.04-2.56-11.946667 5.973333-22.186667 11.946667-32.426667 19.626667C29.013333 507.733333 23.04 709.12 24.746667 751.786667v61.44h81.066666c2.56-94.72 79.36-170.666667 174.933334-170.666667s172.373333 75.946667 174.933333 170.666667h120.32c2.56-94.72 79.36-170.666667 174.933333-170.666667s172.373333 75.946667 174.933334 170.666667h81.066666V691.2c0-146.773333-1.706667-277.333333-93.866666-325.973333-23.893333-12.8-271.36 146.773333-550.4 6.826666z" fill="#FCE4EC" /><path d="M1006.08 830.293333h-81.066667c-9.386667 0-17.066667-7.68-17.066666-17.066666-1.706667-86.186667-71.68-153.6-157.866667-153.6s-155.306667 67.413333-157.866667 153.6c0 9.386667-7.68 17.066667-17.066666 17.066666h-119.466667c-9.386667 0-17.066667-7.68-17.066667-17.066666-1.706667-86.186667-71.68-153.6-157.866666-153.6s-155.306667 67.413333-157.866667 153.6c0 9.386667-7.68 17.066667-17.066667 17.066666H24.746667c-9.386667 0-17.066667-7.68-17.066667-17.066666v-61.44C7.68 742.4-0.853333 509.44 168.96 375.466667c10.24-7.68 22.186667-15.36 34.986667-21.333334 51.2-24.746667 113.493333-23.04 166.4 3.413334 209.066667 104.96 397.653333 36.693333 488.106666 4.266666 35.84-12.8 50.346667-17.92 62.293334-11.946666 102.4 54.613333 102.4 200.533333 102.4 341.333333v122.88c0 8.533333-7.68 16.213333-17.066667 16.213333z m-64.853333-34.133333h48.64V691.2c0-135.68 0-262.826667-81.92-309.76-6.826667 0.853333-23.04 6.826667-37.546667 11.946667-87.893333 31.573333-292.693333 104.96-514.56-5.973334-43.52-22.186667-94.72-23.04-135.68-2.56-11.093333 5.12-20.48 11.093333-29.013333 17.92C34.133333 525.653333 41.813333 741.546667 41.813333 750.933333v45.226667h48.64c10.24-97.28 91.306667-170.666667 190.293334-170.666667 98.986667 0 180.053333 73.386667 190.293333 170.666667h87.893333c10.24-97.28 91.306667-170.666667 190.293334-170.666667 100.693333 0 180.906667 74.24 192 170.666667z" fill="#EC407A" /><path d="M912.213333 365.226667c-6.826667-3.413333-29.866667 5.973333-66.56 18.773333 64.853333 58.88 66.56 176.64 66.56 307.2v62.293333c7.68 18.773333 11.946667 39.253333 12.8 60.586667h81.066667V691.2c0-146.773333-1.706667-277.333333-93.866667-325.973333z" fill="#F8BBD0" /><path d="M1006.08 830.293333h-81.066667c-9.386667 0-17.066667-7.68-17.066666-17.066666-1.706667-86.186667-71.68-153.6-157.866667-153.6s-155.306667 67.413333-157.866667 153.6c0 9.386667-7.68 17.066667-17.066666 17.066666h-119.466667c-9.386667 0-17.066667-7.68-17.066667-17.066666-1.706667-86.186667-71.68-153.6-157.866666-153.6s-155.306667 67.413333-157.866667 153.6c0 9.386667-7.68 17.066667-17.066667 17.066666H24.746667c-9.386667 0-17.066667-7.68-17.066667-17.066666v-61.44C7.68 742.4-0.853333 509.44 168.96 375.466667c10.24-7.68 22.186667-15.36 34.986667-21.333334 51.2-24.746667 113.493333-23.04 166.4 3.413334 209.066667 104.96 397.653333 36.693333 488.106666 4.266666 35.84-12.8 50.346667-17.92 62.293334-11.946666 102.4 54.613333 102.4 200.533333 102.4 341.333333v122.88c0 8.533333-7.68 16.213333-17.066667 16.213333z m-64.853333-34.133333h48.64V691.2c0-135.68 0-262.826667-81.92-309.76-6.826667 0.853333-23.04 6.826667-37.546667 11.946667-87.893333 31.573333-292.693333 104.96-514.56-5.973334-43.52-22.186667-94.72-23.04-135.68-2.56-11.093333 5.12-20.48 11.093333-29.013333 17.92C34.133333 525.653333 41.813333 741.546667 41.813333 750.933333v45.226667h48.64c10.24-97.28 91.306667-170.666667 190.293334-170.666667 98.986667 0 180.053333 73.386667 190.293333 170.666667h87.893333c10.24-97.28 91.306667-170.666667 190.293334-170.666667 100.693333 0 180.906667 74.24 192 170.666667z" fill="#EC407A" /><path d="M172.373333 543.573333l-119.466666-54.613333C6.826667 532.48 6.826667 605.866667 52.906667 649.386667l120.32-54.613334c18.773333-11.093333 18.773333-39.253333-0.853334-51.2z" fill="#FFEE58" /><path d="M52.906667 666.453333c-4.266667 0-8.533333-1.706667-11.946667-4.266666-25.6-23.893333-40.106667-57.173333-40.106667-93.013334s14.506667-68.266667 40.106667-93.013333c5.12-5.12 12.8-5.973333 18.773333-3.413333l120.32 54.613333c0.853333 0 0.853333 0.853333 1.706667 0.853333 14.506667 8.533333 23.04 23.893333 23.04 40.106667s-8.533333 32.426667-23.04 40.106667c-0.853333 0-0.853333 0.853333-1.706667 0.853333L59.733333 665.6c-2.56 0.853333-5.12 0.853333-6.826666 0.853333z m3.413333-157.013333c-13.653333 17.066667-21.333333 37.546667-21.333333 59.733333s7.68 42.666667 21.333333 59.733334L164.693333 580.266667c5.12-3.413333 5.973333-8.533333 5.973334-10.24 0-1.706667-0.853333-6.826667-5.973334-10.24L56.32 509.44z" fill="#EC407A" /></svg>