<?xml version="1.0" encoding="utf-8"?>
<!-- Uploaded to: SVG Repo, www.svgrepo.com, Generator: SVG Repo Mixer Tools -->
<svg width="800px" height="800px" viewBox="0 0 1024 1024" class="icon"  version="1.1" xmlns="http://www.w3.org/2000/svg"><path d="M499.2 665.6h25.6v213.333333h-25.6z" fill="#F48FB1" /><path d="M524.8 896h-25.6c-9.386667 0-17.066667-7.68-17.066667-17.066667V665.6c0-9.386667 7.68-17.066667 17.066667-17.066667h25.6c9.386667 0 17.066667 7.68 17.066667 17.066667v213.333333c0 9.386667-7.68 17.066667-17.066667 17.066667z" fill="#EC407A" /><path d="M512 290.133333m-273.066667 0a273.066667 273.066667 0 1 0 546.133334 0 273.066667 273.066667 0 1 0-546.133334 0Z" fill="#FCE4EC" /><path d="M512 580.266667c-159.573333 0-290.133333-130.56-290.133333-290.133334S352.426667 0 512 0s290.133333 130.56 290.133333 290.133333-130.56 290.133333-290.133333 290.133334z m0-546.133334C371.2 34.133333 256 149.333333 256 290.133333s115.2 256 256 256 256-115.2 256-256S652.8 34.133333 512 34.133333z" fill="#EC407A" /><path d="M503.466667 17.066667c-8.533333 0-17.066667 0.853333-25.6 0.853333C616.96 31.573333 725.333333 147.626667 725.333333 290.133333S616.96 548.693333 477.866667 562.346667c8.533333 0.853333 17.066667 0.853333 25.6 0.853333 151.04 0 273.066667-122.026667 273.066666-273.066667S654.506667 17.066667 503.466667 17.066667z" fill="#F8BBD0" /><path d="M512 580.266667c-159.573333 0-290.133333-130.56-290.133333-290.133334S352.426667 0 512 0s290.133333 130.56 290.133333 290.133333-130.56 290.133333-290.133333 290.133334z m0-546.133334C371.2 34.133333 256 149.333333 256 290.133333s115.2 256 256 256 256-115.2 256-256S652.8 34.133333 512 34.133333z" fill="#EC407A" /><path d="M627.2 622.933333h-230.4c-16.213333 0-29.866667-13.653333-29.866667-29.866666s13.653333-29.866667 29.866667-29.866667h230.4c16.213333 0 29.866667 13.653333 29.866667 29.866667S643.413333 622.933333 627.2 622.933333z" fill="#FFEE58" /><path d="M627.2 640h-230.4c-25.6 0-46.933333-21.333333-46.933333-46.933333s21.333333-46.933333 46.933333-46.933334h230.4c25.6 0 46.933333 21.333333 46.933333 46.933334S652.8 640 627.2 640z m-230.4-59.733333c-6.826667 0-12.8 5.973333-12.8 12.8s5.973333 12.8 12.8 12.8h230.4c6.826667 0 12.8-5.973333 12.8-12.8s-5.973333-12.8-12.8-12.8h-230.4z" fill="#EC407A" /><path d="M588.8 682.666667H435.2c-16.213333 0-29.866667-13.653333-29.866667-29.866667S418.986667 622.933333 435.2 622.933333h153.6c16.213333 0 29.866667 13.653333 29.866667 29.866667S605.013333 682.666667 588.8 682.666667z" fill="#FCE4EC" /><path d="M588.8 699.733333H435.2c-25.6 0-46.933333-21.333333-46.933333-46.933333S409.6 605.866667 435.2 605.866667h153.6c25.6 0 46.933333 21.333333 46.933333 46.933333S614.4 699.733333 588.8 699.733333z m-153.6-59.733333c-6.826667 0-12.8 5.973333-12.8 12.8S428.373333 665.6 435.2 665.6h153.6c6.826667 0 12.8-5.973333 12.8-12.8S595.626667 640 588.8 640H435.2z" fill="#EC407A" /><path d="M512 934.4m-72.533333 0a72.533333 72.533333 0 1 0 145.066666 0 72.533333 72.533333 0 1 0-145.066666 0Z" fill="#F48FB1" /><path d="M512 1024c-49.493333 0-89.6-40.106667-89.6-89.6S462.506667 844.8 512 844.8s89.6 40.106667 89.6 89.6S561.493333 1024 512 1024z m0-145.066667c-30.72 0-55.466667 24.746667-55.466667 55.466667s24.746667 55.466667 55.466667 55.466667 55.466667-24.746667 55.466667-55.466667-24.746667-55.466667-55.466667-55.466667z" fill="#EC407A" /><path d="M523.946667 162.986667l30.72 62.293333c1.706667 4.266667 5.973333 6.826667 10.24 7.68l68.266666 10.24c11.093333 1.706667 15.36 15.36 7.68 23.04l-49.493333 48.64c-3.413333 3.413333-4.266667 7.68-4.266667 11.946667l11.946667 68.266666c1.706667 11.093333-9.386667 19.626667-19.626667 14.506667l-61.44-32.426667c-4.266667-1.706667-8.533333-1.706667-12.8 0L443.733333 409.6c-10.24 5.12-21.333333-3.413333-19.626666-14.506667l11.946666-68.266666c0.853333-4.266667-0.853333-8.533333-4.266666-11.946667l-49.493334-48.64c-7.68-7.68-3.413333-21.333333 7.68-23.04l68.266667-10.24c4.266667-0.853333 8.533333-3.413333 10.24-7.68l30.72-62.293333c5.973333-10.24 19.626667-10.24 24.746667 0z" fill="#FFFFFF" /><path d="M437.76 426.666667c-5.973333 0-12.8-1.706667-17.92-5.973334-9.386667-6.826667-14.506667-18.773333-11.946667-29.866666l11.093334-66.56-48.64-46.933334c-8.533333-8.533333-11.093333-20.48-7.68-31.573333 3.413333-11.093333 12.8-18.773333 24.746666-20.48l66.56-9.386667 29.866667-60.586666c5.12-10.24 15.36-17.066667 27.306667-17.066667 11.946667 0 22.186667 6.826667 27.306666 17.066667l29.866667 60.586666 66.56 9.386667c11.946667 1.706667 21.333333 9.386667 24.746667 20.48 3.413333 11.093333 0.853333 23.04-7.68 31.573333L605.013333 324.266667l11.093334 66.56c1.706667 11.946667-2.56 23.04-11.946667 29.866666-9.386667 6.826667-22.186667 7.68-32.426667 2.56l-59.733333-31.573333-59.733333 31.573333c-4.266667 2.56-9.386667 3.413333-14.506667 3.413334z m74.24-69.12c5.12 0 9.386667 0.853333 14.506667 3.413333l55.466666 29.013333-10.24-61.44c-1.706667-10.24 1.706667-20.48 8.533334-27.306666l44.373333-43.52-61.44-8.533334c-10.24-1.706667-18.773333-7.68-23.04-17.066666L512 176.64l-27.306667 55.466667c-4.266667 9.386667-12.8 15.36-23.04 17.066666l-61.44 8.533334 44.373334 43.52c6.826667 6.826667 10.24 17.066667 8.533333 27.306666l-10.24 61.44 55.466667-29.013333c4.266667-2.56 8.533333-3.413333 13.653333-3.413333z m119.466667-98.986667zM508.586667 169.813333z" fill="#EC407A" /></svg>