<?xml version="1.0" encoding="iso-8859-1"?>
<!-- Uploaded to: SVG Repo, www.svgrepo.com, Generator: SVG Repo Mixer Tools -->
<svg version="1.1" id="Layer_1" xmlns="http://www.w3.org/2000/svg" xmlns:xlink="http://www.w3.org/1999/xlink" 
	 viewBox="0 0 511.992 511.992" xml:space="preserve">
<g>
	<path style="fill:#FFD2A6;" d="M99.725,234.653c-2.609,0-5.234-0.953-7.289-2.875c-4.296-4.031-4.515-10.781-0.484-15.078
		L251.949,46.031c4.023-4.297,10.773-4.516,15.078-0.484c4.297,4.031,4.516,10.781,0.484,15.078L107.514,231.278
		C105.413,233.528,102.577,234.653,99.725,234.653z"/>
	<path style="fill:#FFD2A6;" d="M419.727,234.653c-2.844,0-5.688-1.125-7.781-3.375L251.949,60.624
		c-4.031-4.296-3.812-11.046,0.484-15.078c4.296-4.032,11.047-3.812,15.078,0.484l159.997,170.668
		c4.031,4.297,3.812,11.047-0.484,15.078C424.962,233.7,422.337,234.653,419.727,234.653z"/>
</g>
<path style="fill:#A85D5D;" d="M441.056,213.325H78.398c-11.781,0-21.336,9.547-21.336,21.328s9.555,21.343,21.336,21.343h362.658
	c11.781,0,21.344-9.562,21.344-21.344S452.837,213.325,441.056,213.325z"/>
<path style="fill:#434A54;" d="M259.73,63.999c-17.648,0-32-14.359-32-31.999c0-17.656,14.352-32,32-32c17.641,0,32,14.344,32,32
	C291.73,49.641,277.371,63.999,259.73,63.999z M259.73,21.329c-5.883,0-10.672,4.781-10.672,10.672
	c0,5.875,4.789,10.656,10.672,10.656s10.664-4.781,10.664-10.656C270.394,26.11,265.613,21.329,259.73,21.329z"/>
<g>
	<rect x="89.066" y="255.996" style="fill:#FFD2A6;" width="21.335" height="170.65"/>
	<rect x="398.396" y="255.996" style="fill:#FFD2A6;" width="21.328" height="160"/>
</g>
<path style="fill:#AC92EB;" d="M446.774,410.275c-10.078-10.078-23.469-15.625-37.719-15.625s-27.625,5.547-37.718,15.625
	c-10.062,10.078-15.608,23.469-15.608,37.717c0,14.234,5.546,27.625,15.608,37.703c10.093,10.078,23.468,15.625,37.718,15.625
	s27.641-5.547,37.719-15.625c10.062-10.078,15.625-23.469,15.625-37.703C462.399,433.744,456.837,420.353,446.774,410.275z"/>
<rect x="249.056" y="255.996" style="fill:#FFD2A6;" width="21.336" height="85.33"/>
<path style="fill:#E6E9ED;" d="M355.729,511.992c-2.734,0-5.453-1.047-7.547-3.125c-4.156-4.172-4.156-10.922,0-15.094
	l106.67-106.67c4.172-4.156,10.922-4.156,15.078,0c4.171,4.172,4.171,10.922,0,15.094l-106.655,106.67
	C361.182,510.945,358.464,511.992,355.729,511.992z"/>
<path style="fill:#FFCE54;" d="M160.006,436.541c-1.25-3.859-4.594-6.672-8.609-7.266l-29.093-4.219l-13.008-26.359
	c-1.797-3.641-5.508-5.953-9.562-5.953c-4.062,0-7.773,2.312-9.57,5.953l-13.008,26.36l-29.093,4.219
	c-4.016,0.594-7.352,3.406-8.609,7.266c-1.25,3.859-0.203,8.094,2.703,10.936l21.046,20.516l-4.969,28.969
	c-0.688,4,0.961,8.047,4.242,10.438c3.289,2.391,7.641,2.703,11.234,0.812l26.022-13.688l26.016,13.688
	c1.562,0.828,3.266,1.219,4.969,1.219c2.21,0,4.406-0.688,6.265-2.031c3.289-2.391,4.93-6.438,4.242-10.438l-4.969-28.969
	l21.055-20.516C160.217,444.635,161.264,440.4,160.006,436.541z"/>
<g>
	<polygon style="fill:#ED5564;" points="231.692,359.369 194.552,351.463 187.005,374.088 204.669,391.744 	"/>
	<polygon style="fill:#ED5564;" points="277.184,404.869 285.09,442.01 262.465,449.555 244.809,431.9 	"/>
</g>
<path style="fill:#E6E9ED;" d="M285.402,396.182c28.656-30.203,42.218-51.234,42.718-66.201c0.25-7.953-3.094-13.016-5.937-15.875
	c-2.844-2.844-7.922-6.188-15.875-5.938c-14.969,0.5-36,14.078-66.195,42.732c-20.781,19.719-37.718,38.984-38.429,39.797
	c-3.703,4.219-3.5,10.594,0.477,14.578l28.859,28.859c3.969,3.969,10.344,4.172,14.57,0.469
	C246.403,433.9,265.676,416.963,285.402,396.182z"/>
<path style="fill:#ED5564;" d="M312.34,364.603c10.358-14.234,15.483-25.545,15.78-34.623c0.25-7.953-3.094-13.016-5.937-15.875
	c-2.844-2.844-7.922-6.188-15.875-5.938c-9.062,0.297-20.375,5.422-34.617,15.781L312.34,364.603z"/>
</svg>