<?xml version="1.0" encoding="iso-8859-1"?>
<!-- Uploaded to: SVG Repo, www.svgrepo.com, Generator: SVG Repo Mixer Tools -->
<svg height="800px" width="800px" version="1.1" id="Layer_1" xmlns="http://www.w3.org/2000/svg" xmlns:xlink="http://www.w3.org/1999/xlink" 
	 viewBox="0 0 512 512" xml:space="preserve">
<path style="fill:#0084FF;" d="M501.551,439.902c0,34.048-27.601,61.649-61.649,61.649H72.098
	c-34.048,0-61.649-27.601-61.649-61.649l0,0c0-34.048,27.601-61.649,61.649-61.649h367.804
	C473.95,378.253,501.551,405.854,501.551,439.902L501.551,439.902z"/>
<path style="fill:#FFD41D;" d="M456.62,316.604c0,34.048-27.601,61.649-61.649,61.649H117.029
	c-34.048,0-61.649-27.601-61.649-61.649l0,0c0-34.048,27.601-61.649,61.649-61.649h277.943
	C429.019,254.955,456.62,282.556,456.62,316.604L456.62,316.604z"/>
<path style="fill:#F3437F;" d="M402.089,193.306c0,34.048-27.601,61.649-61.649,61.649H171.559
	c-34.048,0-61.649-27.601-61.649-61.649l0,0c0-34.048,27.601-61.649,61.649-61.649H340.44
	C374.488,131.657,402.089,159.258,402.089,193.306L402.089,193.306z"/>
<circle style="fill:#1EB615;" cx="256" cy="71.053" r="60.604"/>
<path d="M204.892,467.069c-0.007,0-0.015,0-0.022,0h-0.244c-5.77-0.013-10.44-4.7-10.427-10.471
	c0.013-5.763,4.688-10.427,10.448-10.427c0.007,0,0.015,0,0.023,0h0.245c5.77,0.013,10.44,4.7,10.427,10.471
	C215.328,462.406,210.652,467.069,204.892,467.069z"/>
<path d="M170.842,467.069H69.351c-5.771,0-10.449-4.678-10.449-10.449c0-5.771,4.678-10.449,10.449-10.449h101.492
	c5.771,0,10.449,4.678,10.449,10.449C181.291,462.391,176.613,467.069,170.842,467.069z"/>
<path d="M445.43,368.037c13.342-13.092,21.64-31.308,21.64-51.433c0-39.755-32.343-72.098-72.098-72.098h-3.828
	c13.201-13.075,21.395-31.195,21.395-51.2c0-39.755-32.343-72.098-72.098-72.098h-34.162c12.83-12.862,20.775-30.598,20.775-50.155
	C327.053,31.875,295.178,0,256,0s-71.053,31.875-71.053,71.053c0,19.557,7.944,37.293,20.774,50.155h-34.162
	c-39.755,0-72.098,32.343-72.098,72.098c0,20.005,8.194,38.125,21.395,51.2h-3.827c-39.755,0-72.098,32.343-72.098,72.098
	c0,20.125,8.298,38.341,21.64,51.433C29.391,370.872,0,402.009,0,439.902C0,479.657,32.343,512,72.098,512h367.804
	C479.657,512,512,479.657,512,439.902C512,402.009,482.609,370.872,445.43,368.037z M205.845,71.053
	c0-27.655,22.5-50.155,50.155-50.155s50.155,22.5,50.155,50.155s-22.5,50.155-50.155,50.155S205.845,98.708,205.845,71.053z
	 M120.359,193.306c0-28.232,22.968-51.2,51.2-51.2H340.44c28.232,0,51.2,22.968,51.2,51.2s-22.968,51.2-51.2,51.2H171.559
	C143.328,244.506,120.359,221.538,120.359,193.306z M65.829,316.604c0-28.232,22.968-51.2,51.2-51.2h277.943
	c28.232,0,51.2,22.968,51.2,51.2s-22.968,51.2-51.2,51.2H117.029C88.796,367.804,65.829,344.836,65.829,316.604z M439.902,491.102
	H72.098c-28.232,0-51.2-22.968-51.2-51.2c0-28.232,22.968-51.2,51.2-51.2h367.804c28.232,0,51.2,22.968,51.2,51.2
	C491.102,468.134,468.134,491.102,439.902,491.102z"/>
</svg>