<svg width="24" height="24" viewBox="0 0 24 24" fill="none" xmlns="http://www.w3.org/2000/svg">
<path d="M12 3.75C7.44365 3.75 3.75 7.44365 3.75 12C3.75 16.5564 7.44365 20.25 12 20.25C13.0853 20.25 14.1199 20.0408 15.067 19.6613C15.4515 19.5072 15.8881 19.694 16.0422 20.0785C16.1963 20.463 16.0095 20.8996 15.625 21.0536C14.5034 21.5031 13.2796 21.75 12 21.75C6.61522 21.75 2.25 17.3848 2.25 12C2.25 6.61522 6.61522 2.25 12 2.25C17.3848 2.25 21.75 6.61522 21.75 12C21.75 12.4142 21.4142 12.75 21 12.75C20.5858 12.75 20.25 12.4142 20.25 12C20.25 7.44365 16.5564 3.75 12 3.75Z" fill="#0006" />
<path d="M15.75 14.5C15.336 14.5 15 14.8355 15 15.25C15 15.6645 15.336 16 15.75 16H17.75V21.25C17.75 21.6645 18.086 22 18.5 22C18.914 22 19.25 21.6645 19.25 21.25V16H21.25C21.664 16 22 15.6645 22 15.25C22 14.8355 21.664 14.5 21.25 14.5H15.75Z" fill="#0006" />
</svg>
