<svg xmlns="http://www.w3.org/2000/svg" width="24" height="24" viewBox="0 0 24 24" fill="none">
<path d="M7.75 3C5.1265 3 3 5.1265 3 7.75V16.4297C3 17.0982 3.33412 17.7227 3.89062 18.0938L4.5 18.5V7.75C4.5 5.955 5.955 4.5 7.75 4.5H18.5L18.0938 3.89062C17.7233 3.33412 17.0987 3 16.4297 3H7.75ZM8.25 5.5C6.74011 5.5 5.5 6.74011 5.5 8.25V18.25C5.5 19.7599 6.74011 21 8.25 21H18.25C19.7599 21 21 19.7599 21 18.25V8.25C21 6.74011 19.7599 5.5 18.25 5.5H8.25ZM8.25 7H18.25C18.9491 7 19.5 7.55089 19.5 8.25V18.25C19.5 18.9491 18.9491 19.5 18.25 19.5H8.25C7.55089 19.5 7 18.9491 7 18.25V8.25C7 7.55089 7.55089 7 8.25 7Z" fill="black" fill-opacity="0.9"/>
</svg>
