<?xml version="1.0" encoding="iso-8859-1"?>
<!-- Uploaded to: SVG Repo, www.svgrepo.com, Generator: SVG Repo Mixer Tools -->
<svg version="1.1" id="Layer_1" xmlns="http://www.w3.org/2000/svg" xmlns:xlink="http://www.w3.org/1999/xlink" 
	 viewBox="0 0 511.996 511.996" xml:space="preserve">
<circle style="fill:#394CE2;" cx="255.998" cy="255.996" r="255.996"/>
<path style="fill:#1B2DDD;" d="M509.616,290.919c-17.032,124.864-124.08,221.076-253.614,221.076
	c-25.944,0-50.98-3.866-74.573-11.044l-97.895-97.885v-42.694h40.218c0-0.01-0.01-0.01-0.01-0.021
	c-2.654-2.017-5.015-4.389-7.043-7.032c-8.808-6.708-14.534-17.303-14.534-29.173v-6.938c0-20.156,16.499-36.644,36.654-36.644
	h5.381c-1.693-1.526-3.229-3.229-4.608-5.036c-8.819-6.708-14.555-17.293-14.555-29.152v-6.938
	c0-20.156,16.499-36.654,36.654-36.654h5.099c-1.693-1.526-3.229-3.218-4.608-5.036c-8.819-6.708-14.555-17.282-14.555-29.152
	v-6.938c0-20.156,16.499-36.644,36.654-36.644h40.939l5.475-62.4h50.614l63.623,66.726c0.24,0.125,0.481,0.251,0.721,0.397
	c0.24,0.136,0.481,0.272,0.711,0.408c0.616,0.366,1.223,0.752,1.818,1.149c0.24,0.167,0.481,0.334,0.721,0.502
	c0.512,0.366,1.003,0.742,1.494,1.118c1.63,1.296,3.145,2.717,4.535,4.263L509.616,290.919z"/>
<polygon style="fill:#FFFFFF;" points="281.31,62.614 230.693,62.614 204.568,360.372 307.436,360.372 "/>
<polygon style="fill:#E1E1E3;" points="307.436,360.372 281.31,62.614 255.998,62.614 255.998,360.372 "/>
<path style="fill:#FFA91F;" d="M327.727,205.242H184.276c-20.156,0-36.647-16.491-36.647-36.647v-6.938
	c0-20.156,16.491-36.647,36.647-36.647h143.45c20.156,0,36.647,16.491,36.647,36.647v6.938
	C364.374,188.751,347.883,205.242,327.727,205.242z"/>
<path style="fill:#FF8800;" d="M327.727,205.242c20.156,0,36.647-16.491,36.647-36.647v-6.938c0-20.156-16.491-36.647-36.647-36.647
	h-71.729v80.232H327.727z"/>
<path style="fill:#FF52A1;" d="M350.315,283.019H161.688c-20.156,0-36.647-16.491-36.647-36.647v-6.938
	c0-20.156,16.491-36.647,36.647-36.647h188.626c20.156,0,36.647,16.491,36.647,36.647v6.938
	C386.962,266.529,370.471,283.019,350.315,283.019z"/>
<path style="fill:#FF328E;" d="M350.315,283.019c20.156,0,36.647-16.491,36.647-36.647v-6.938c0-20.156-16.491-36.647-36.647-36.647
	h-94.317v80.232H350.315z"/>
<path style="fill:#00D9E0;" d="M373.188,360.797H138.815c-20.156,0-36.647-16.491-36.647-36.647v-6.938
	c0-20.156,16.491-36.647,36.647-36.647h234.371c20.156,0,36.647,16.491,36.647,36.647v6.938
	C409.835,344.306,393.344,360.797,373.188,360.797z"/>
<path style="fill:#00B7BE;" d="M373.188,280.565h-117.19v80.232h117.189c20.156,0,36.647-16.491,36.647-36.647v-6.938
	C409.835,297.056,393.344,280.565,373.188,280.565z"/>
<rect x="83.537" y="360.37" style="fill:#FFFFFF;" width="344.926" height="42.691"/>
<rect x="255.998" y="360.37" style="fill:#E1E1E3;" width="172.468" height="42.691"/>
</svg>