<?xml version="1.0" encoding="iso-8859-1"?>
<!-- Uploaded to: SVG Repo, www.svgrepo.com, Generator: SVG Repo Mixer Tools -->
<svg height="800px" width="800px" version="1.1" id="Layer_1" xmlns="http://www.w3.org/2000/svg" xmlns:xlink="http://www.w3.org/1999/xlink" 
	 viewBox="0 0 512 512" xml:space="preserve">
<circle style="fill:#FFD15D;" cx="256" cy="256" r="256"/>
<path style="fill:#F9B54C;" d="M327.178,501.963c92.422-26.7,163.34-104.069,180.715-200.082L316.207,110.197l-68.827,71.675
	l-56.889,43.467L256,290.847l-24.135,116.801L327.178,501.963z"/>
<path style="fill:#FC6F58;" d="M276.425,306.174c-4.768-14.222-5.465-29.493-2.06-44.103c3.251-13.955,5.198-27.779,5.198-33.366
	c0-13.012-10.549-23.561-23.561-23.561s-23.561,10.549-23.561,23.561c0,5.589,1.946,19.411,5.196,33.366
	c3.403,14.608,2.708,29.88-2.06,44.103c-9.026,26.917-14.917,63.762-14.917,75.671c0,19.518,15.822,35.34,35.34,35.34
	s35.34-15.822,35.34-35.34C291.34,369.936,285.451,333.093,276.425,306.174z"/>
<path style="fill:#F1543F;" d="M276.425,306.174c-4.768-14.222-5.463-29.493-2.06-44.103c3.251-13.955,5.198-27.779,5.198-33.366
	c0-13.012-10.549-23.561-23.561-23.561c-0.193,0-0.381,0.024-0.574,0.029v211.982c0.193,0.003,0.381,0.029,0.574,0.029
	c19.518,0,35.34-15.822,35.34-35.34C291.34,369.936,285.451,333.091,276.425,306.174z"/>
<circle style="fill:#84DBFF;" cx="256" cy="170.667" r="85.333"/>
<g>
	<path style="fill:#31BAFD;" d="M256,85.333c-0.193,0-0.381,0.014-0.574,0.014v170.637c0.193,0.002,0.381,0.014,0.574,0.014
		c47.128,0,85.333-38.205,85.333-85.333S303.13,85.333,256,85.333z"/>
	<path style="fill:#31BAFD;" d="M170.667,170.667c0,3.203,0.191,6.361,0.536,9.473c20.833,11.64,51.098,18.972,84.797,18.972
		s63.964-7.332,84.797-18.972c0.345-3.112,0.536-6.27,0.536-9.473c0-47.128-38.205-85.333-85.333-85.333
		S170.667,123.539,170.667,170.667z"/>
</g>
<path style="fill:#2B9ED8;" d="M256,85.333c-0.193,0-0.381,0.014-0.574,0.014v113.755c0.193,0,0.381,0.009,0.574,0.009
	c33.699,0,63.964-7.332,84.797-18.972c0.345-3.112,0.536-6.27,0.536-9.473C341.333,123.539,303.13,85.333,256,85.333z"/>
<g>
	<circle style="fill:#324A5E;" cx="190.492" cy="171.529" r="8.62"/>
	<circle style="fill:#324A5E;" cx="223.246" cy="179.286" r="8.62"/>
	<circle style="fill:#324A5E;" cx="256" cy="181.872" r="8.62"/>
</g>
<g>
	<path style="fill:#2B3B4E;" d="M256,173.253c-0.197,0-0.381,0.045-0.574,0.059v17.124c0.193,0.012,0.378,0.059,0.574,0.059
		c4.76,0,8.62-3.86,8.62-8.62S260.761,173.253,256,173.253z"/>
	<circle style="fill:#2B3B4E;" cx="321.508" cy="171.529" r="8.62"/>
	<circle style="fill:#2B3B4E;" cx="288.754" cy="179.286" r="8.62"/>
</g>
</svg>