<?xml version="1.0" encoding="iso-8859-1"?>
<!-- Uploaded to: SVG Repo, www.svgrepo.com, Generator: SVG Repo Mixer Tools -->
<svg version="1.1" id="Layer_1" xmlns="http://www.w3.org/2000/svg" xmlns:xlink="http://www.w3.org/1999/xlink" 
	 viewBox="0 0 512 512" xml:space="preserve">
<rect x="234.057" y="424.229" style="fill:#DFDFE1;" width="43.886" height="87.771"/>
<path style="fill:#FFDB2D;" d="M343.771,43.886C438.857,138.971,460.8,160.914,460.8,234.057
	c0,117.029-146.286,190.171-204.8,219.429c-58.514-29.257-204.8-102.4-204.8-219.429c0-73.143,21.943-95.086,117.029-190.171
	H343.771z"/>
<path style="fill:#FFAF33;" d="M343.771,43.886H256v409.6c58.514-29.257,204.8-102.4,204.8-219.429
	C460.8,160.914,438.857,138.971,343.771,43.886z"/>
<path style="fill:#FF6643;" d="M343.771,43.886h-43.886V0h-87.771v43.886h-43.886c-55.84,55.84-86.448,86.455-102.207,117.029
	h379.957C430.219,130.341,399.612,99.726,343.771,43.886z"/>
<path style="fill:#FF4F19;" d="M256,0v160.914h189.978c-15.759-30.574-46.367-61.188-102.207-117.029h-43.886V0H256z"/>
</svg>