<?xml version="1.0" encoding="iso-8859-1"?>
<!-- Uploaded to: SVG Repo, www.svgrepo.com, Generator: SVG Repo Mixer Tools -->
<!DOCTYPE svg PUBLIC "-//W3C//DTD SVG 1.1//EN" "http://www.w3.org/Graphics/SVG/1.1/DTD/svg11.dtd">
<svg fill="#000000" height="800px" width="800px" version="1.1" id="Capa_1" xmlns="http://www.w3.org/2000/svg" xmlns:xlink="http://www.w3.org/1999/xlink" 
	 viewBox="0 0 489.199 489.199" xml:space="preserve">
<g>
	<path d="M488.609,326.324c-0.765-1.295-2.156-2.09-3.66-2.09h-46.556c-1.402,0-2.715,0.691-3.507,1.849
		c-8.143,11.892-17.294,22.874-27.289,32.87l-41.37-180.799c-0.013-0.058-0.027-0.115-0.043-0.172
		c-5.994-21.938-5.605-36.062,1.124-40.848c10.82-7.691,38.313,7.762,47.091,13.782c0.037,0.025,0.075,0.051,0.113,0.075
		c18.373,11.769,42.9,6.392,54.672-11.982c11.764-18.371,6.387-42.893-11.986-54.665l-56.762-36.352l18.717-25.597
		c0.873-1.194,1.063-2.757,0.5-4.125c-0.563-1.368-1.796-2.346-3.257-2.58c-2.345-0.375-57.962-8.824-101.645,25.836
		c-28.396,22.532-44.831,57.899-48.881,105.168H124.107c-0.843,0.011-20.885,0.402-41.69,12.993
		c-19.181,11.608-42.556,36.155-44.985,87.177c-0.056,1.161,0.367,2.294,1.169,3.135c0.803,0.842,1.914,1.317,3.076,1.317h36.248
		c2.295,0,4.176-1.822,4.248-4.116c0.02-0.623,2.19-58.926,30.457-65.365l-0.682,3.624c-0.001,0.004-0.001,0.008-0.002,0.011
		L79.68,356.983c-9.243-9.469-17.752-19.778-25.367-30.899c-0.792-1.157-2.104-1.849-3.507-1.849H4.25
		c-1.504,0-2.895,0.795-3.66,2.09c-0.765,1.296-0.787,2.898-0.061,4.215c49.1,88.908,142.622,144.14,244.07,144.14
		c101.449,0,194.972-55.231,244.07-144.14C489.397,329.223,489.374,327.62,488.609,326.324z M73.91,242.818H46.192
		c2.632-35.461,16.179-60.903,40.304-75.661c18.852-11.531,37.538-11.958,37.664-11.961h145.643c2.231,0,4.083-1.727,4.239-3.952
		c3.281-46.734,18.733-81.391,45.928-103.005c31.896-25.354,71.871-25.855,87.924-24.845l-16.987,23.231
		c-0.692,0.947-0.963,2.138-0.747,3.29c0.216,1.153,0.898,2.165,1.886,2.798l60.568,38.789c14.428,9.244,18.65,28.499,9.414,42.923
		c-9.232,14.409-28.456,18.638-42.876,9.444c-4.241-2.905-39.238-26.123-56.764-13.665c-10.171,7.228-11.618,23.563-4.426,49.933
		l42.48,185.645c-7.346,6.742-15.091,12.984-23.193,18.688c-1.15-35.074-14.576-64.594-39.023-85.597
		c-23.648-20.318-56.898-31.508-93.625-31.508s-69.977,11.189-93.625,31.508c-24.447,21.004-37.873,50.523-39.023,85.597
		c-8.756-6.163-17.104-12.942-24.971-20.315l21.505-114.311c0.37,0.105,0.753,0.18,1.157,0.18h43.527c2.348,0,4.25-1.902,4.25-4.25
		c0-2.348-1.902-4.25-4.25-4.25h-43.119l4.486-23.85c0.487,0.194,1.017,0.309,1.573,0.309h74.12c2.348,0,4.25-1.902,4.25-4.25
		c0-2.348-1.902-4.25-4.25-4.25h-74.12c-0.011,0-0.021,0.003-0.032,0.003l3.558-18.913H255.39c2.348,0,4.25-1.902,4.25-4.25
		c0-2.348-1.902-4.25-4.25-4.25H121.234l0.805-4.275c0.233-1.243-0.098-2.526-0.905-3.499c-0.808-0.974-2.007-1.537-3.271-1.537
		C81.699,172.76,75.07,227.093,73.91,242.818z M368.906,390.079c-36.6,23.45-79.593,36.428-124.307,36.428
		c-44.713,0-87.707-12.978-124.306-36.428c0.034-0.218,0.066-0.437,0.066-0.663c0-78.44,62.398-113.552,124.239-113.552
		s124.239,35.111,124.239,113.552C368.839,389.644,368.871,389.862,368.906,390.079z M244.6,466.179
		c-95.935,0-184.559-50.943-233.037-133.444h37.016c9.11,13.043,19.412,24.992,30.674,35.785c0.111,0.122,0.231,0.233,0.356,0.342
		c44.036,42.031,102.913,66.146,164.991,66.146c61.433,0,119.737-23.605,163.619-64.829c0.008-0.009,0.018-0.017,0.026-0.025
		c11.933-11.213,22.807-23.718,32.376-37.418h37.016C429.159,415.236,340.535,466.179,244.6,466.179z"/>
	<path d="M383.852,90.628c6.761,0,12.262-5.5,12.262-12.261c0-6.761-5.501-12.262-12.262-12.262
		c-6.761,0-12.261,5.501-12.261,12.262C371.591,85.128,377.091,90.628,383.852,90.628z M383.852,74.606
		c2.074,0,3.762,1.688,3.762,3.762c0,2.073-1.688,3.761-3.762,3.761c-2.073,0-3.761-1.688-3.761-3.761
		C380.091,76.293,381.778,74.606,383.852,74.606z"/>
</g>
</svg>