<?xml version="1.0" encoding="iso-8859-1"?>
<!-- Uploaded to: SVG Repo, www.svgrepo.com, Generator: SVG Repo Mixer Tools -->
<svg height="800px" width="800px" version="1.1" id="Layer_1" xmlns="http://www.w3.org/2000/svg" xmlns:xlink="http://www.w3.org/1999/xlink" 
	 viewBox="0 0 512 512" xml:space="preserve">
<g>
	<path style="fill:#774D28;" d="M169.307,29.642c-9.881-11.677-24.253-18.863-39.523-18.863c-29.642,0-52.996,25.151-52.996,54.793
		c0,23.354,14.372,44.014,35.032,51.2C120.801,80.842,141.461,50.302,169.307,29.642"/>
	<path style="fill:#774D28;" d="M383.089,10.779c-16.168,0-29.642,7.186-39.523,18.863c27.846,20.66,48.505,51.2,56.589,87.13
		c20.66-7.186,35.032-27.846,35.032-51.2C436.086,35.93,412.731,10.779,383.089,10.779"/>
</g>
<path style="fill:#95693E;" d="M193.559,354.807c0-22.456-17.965-40.421-40.421-40.421s-40.421,17.965-40.421,40.421
	c0,22.456,17.965,40.421,40.421,40.421S193.559,377.263,193.559,354.807"/>
<g>
	<path style="fill:#774D28;" d="M211.524,453.614c0-32.337-26.049-58.386-58.386-58.386s-58.386,26.049-58.386,58.386
		S120.801,512,153.138,512S211.524,485.951,211.524,453.614"/>
	<path style="fill:#774D28;" d="M418.121,453.614c0-32.337-26.049-58.386-58.386-58.386s-58.386,26.049-58.386,58.386
		S327.398,512,359.735,512S418.121,485.951,418.121,453.614"/>
</g>
<path style="fill:#95693E;" d="M400.156,354.807c0-22.456-17.965-40.421-40.421-40.421s-40.421,17.965-40.421,40.421
	c0,22.456,17.965,40.421,40.421,40.421S400.156,377.263,400.156,354.807"/>
<path style="fill:#E8594B;" d="M320.212,345.825c2.695-13.474,13.474-25.151,26.947-28.744c12.575-3.593,24.253-1.796,33.235,4.491
	c1.797-20.66-5.389-40.421-16.168-51.2c-14.372-15.27-32.337-26.947-52.996-26.947c-25.151,0-44.912,19.761-54.793,44.014
	c-9.881-24.253-30.54-44.014-55.691-44.014c-21.558,0-38.625,11.677-52.996,26.947c-10.779,11.677-17.965,30.54-16.168,52.098
	c8.982-6.288,20.66-8.084,33.235-5.389c13.474,3.593,25.151,15.27,27.846,28.744c4.491,18.863-4.491,35.93-18.863,44.912
	c20.66,21.558,52.098,53.895,69.165,71.86c7.186,7.186,18.863,7.186,26.947,0c17.965-17.965,49.404-51.2,70.063-72.758
	C324.703,380.856,315.721,363.789,320.212,345.825"/>
<path style="fill:#932C25;" d="M184.577,287.439L184.577,287.439L184.577,287.439z M220.507,305.404
	c-3.593,0-7.186-1.796-8.084-5.389c-3.593-8.084-7.186-12.575-11.677-12.575c-0.898,0-1.796,0.898-3.593,1.797
	c-3.593,2.695-8.982,1.796-11.677-1.797l0,0c-2.695-4.491-1.796-9.881,2.695-12.575s9.881-5.389,12.575-5.389
	c8.982,0,20.66,4.491,27.846,23.354c1.796,4.491-0.898,9.881-5.389,11.677C222.303,305.404,221.405,305.404,220.507,305.404
	L220.507,305.404z"/>
<g>
	<path style="fill:#95693E;" d="M242.963,461.698c-16.168-17.067-44.014-44.912-64.674-66.47h-25.151
		c32.337,0,58.386,26.049,58.386,58.386c0,14.372-5.389,27.846-14.372,37.726c17.965,7.186,38.625,11.677,59.284,11.677
		s40.421-4.491,59.284-11.677c-8.982-9.881-14.372-23.354-14.372-37.726c0-32.337,26.049-58.386,58.386-58.386h-26.049
		c-20.66,21.558-48.505,49.404-64.674,66.47C261.826,469.782,250.149,469.782,242.963,461.698"/>
	<path style="fill:#95693E;" d="M154.037,263.186c12.575-11.677,28.744-20.66,46.709-20.66c25.151,0,45.811,19.761,55.691,44.014
		c9.881-24.253,29.642-44.014,54.793-44.014c18.863,0,34.133,8.982,47.607,20.66c27.846-27.846,45.811-66.47,45.811-109.586
		C404.647,69.165,339.075,0,256.437,0S108.226,69.165,108.226,153.6C108.226,197.614,126.191,236.239,154.037,263.186"/>
</g>
<g>
	<path style="fill:#C19772;" d="M245.658,152.702c-1.796,0-2.695,0.898-2.695,1.797c0,0.898-0.898,1.796-0.898,3.593l2.695,9.881
		c0,1.796,1.796,2.695,3.593,2.695h16.168c1.796,0,3.593-0.898,3.593-2.695l2.695-9.881c0-1.796,0-2.695-0.898-3.593
		c-0.898-0.898-1.796-1.797-2.695-1.797H245.658z M264.521,188.632h-16.168c-9.881,0-18.863-7.186-21.558-16.168l-1.796-10.779
		c-1.796-6.288,0-13.474,3.593-18.863c4.491-5.389,10.779-8.084,17.067-8.084h20.66c7.186,0,13.474,2.695,17.067,8.084
		c3.593,5.389,5.389,12.575,3.593,18.863l-2.695,9.881C283.384,181.446,274.401,188.632,264.521,188.632L264.521,188.632z"/>
	<path style="fill:#C19772;" d="M274.401,224.561c-15.27,0-26.947-11.677-26.947-26.947v-17.965c0-5.389,3.593-8.982,8.982-8.982
		c5.389,0,8.982,3.593,8.982,8.982v17.965c0,5.389,3.593,8.982,8.982,8.982c5.389,0,8.982-3.593,8.982-8.982
		c0-5.389,3.593-8.982,8.982-8.982c5.389,0,8.982,3.593,8.982,8.982C301.349,212.884,289.672,224.561,274.401,224.561"/>
	<path style="fill:#C19772;" d="M238.472,224.561c-15.27,0-26.947-11.677-26.947-26.947c0-5.389,3.593-8.982,8.982-8.982
		s8.982,3.593,8.982,8.982c0,5.389,3.593,8.982,8.982,8.982c5.389,0,8.982-3.593,8.982-8.982c0-5.389,3.593-8.982,8.982-8.982
		c5.389,0,8.982,3.593,8.982,8.982C265.419,212.884,253.742,224.561,238.472,224.561"/>
	<path style="fill:#C19772;" d="M355.244,125.754c-5.389,0-8.982-3.593-8.982-8.982c0-9.881-8.084-17.965-17.965-17.965
		s-17.965,8.084-17.965,17.965c0,5.389-3.593,8.982-8.982,8.982c-5.389,0-8.982-3.593-8.982-8.982
		c0-19.761,16.168-35.93,35.93-35.93s35.93,16.168,35.93,35.93C364.226,122.161,360.633,125.754,355.244,125.754"/>
	<path style="fill:#C19772;" d="M211.524,125.754c-5.389,0-8.982-3.593-8.982-8.982c0-9.881-8.084-17.965-17.965-17.965
		s-17.965,8.084-17.965,17.965c0,5.389-3.593,8.982-8.982,8.982c-5.389,0-8.982-3.593-8.982-8.982
		c0-19.761,16.168-35.93,35.93-35.93s35.93,16.168,35.93,35.93C220.507,122.161,216.914,125.754,211.524,125.754"/>
</g>
<g>
	<path style="fill:#95693E;" d="M337.279,462.596c-5.389,0-8.982-3.593-8.982-8.982c0-17.067,14.372-31.439,31.439-31.439
		c5.389,0,8.982,3.593,8.982,8.982s-3.593,8.982-8.982,8.982c-7.186,0-13.474,6.288-13.474,13.474
		C346.261,459.004,342.668,462.596,337.279,462.596"/>
	<path style="fill:#95693E;" d="M130.682,458.105c-5.389,0-8.982-3.593-8.982-8.982c0-17.067,14.372-31.439,31.439-31.439
		c5.389,0,8.982,3.593,8.982,8.982c0,5.389-3.593,8.982-8.982,8.982c-7.186,0-13.474,6.288-13.474,13.474
		C139.665,454.512,136.072,458.105,130.682,458.105"/>
</g>
</svg>