<?xml version="1.0" encoding="iso-8859-1"?>
<!-- Uploaded to: SVG Repo, www.svgrepo.com, Generator: SVG Repo Mixer Tools -->
<svg height="800px" width="800px" version="1.1" id="Layer_1" xmlns="http://www.w3.org/2000/svg" xmlns:xlink="http://www.w3.org/1999/xlink" 
	 viewBox="0 0 512.001 512.001" xml:space="preserve">
<path style="fill:#FFCE3E;" d="M377.409,339.815h-61.839c-9.22,0-16.696-7.475-16.696-16.696V188.4
	c0-9.22,7.475-16.696,16.696-16.696h61.839c9.22,0,16.696,7.475,16.696,16.696v134.72
	C394.105,332.34,386.63,339.815,377.409,339.815z"/>
<path style="fill:#54C9EB;" d="M377.409,143.257H134.591c-6.904,0-13.097-4.25-15.579-10.692
	c-2.482-6.443-0.742-13.751,4.376-18.383L244.795,4.315c6.36-5.753,16.047-5.754,22.404,0l121.412,109.867
	c5.12,4.632,6.86,11.94,4.378,18.382C390.506,139.007,384.314,143.257,377.409,143.257z"/>
<path style="fill:#169ED9;" d="M388.611,114.182L267.199,4.315C264.02,1.439,260.011,0.001,256.001,0v143.257h121.409
	c6.904,0,13.097-4.25,15.579-10.693C395.471,126.122,393.731,118.814,388.611,114.182z"/>
<path style="fill:#FEE856;" d="M196.429,339.815h-61.839c-9.22,0-16.696-7.475-16.696-16.696V188.4
	c0-9.22,7.475-16.696,16.696-16.696h61.839c9.22,0,16.696,7.475,16.696,16.696v134.72
	C213.125,332.34,205.65,339.815,196.429,339.815z"/>
<g>
	<path style="fill:#FF7058;" d="M413.502,512h-97.931c-9.22,0-16.696-7.475-16.696-16.696v-38.977
		c0-23.641-19.233-42.876-42.876-42.876s-42.876,19.233-42.876,42.876v38.977c0,9.22-7.475,16.696-16.696,16.696h-97.93
		c-9.22,0-16.696-7.475-16.696-16.696V323.118c0-9.22,7.475-16.696,16.696-16.696h315.005c9.22,0,16.696,7.475,16.696,16.696
		v172.186C430.198,504.525,422.724,512,413.502,512z"/>
	<path style="fill:#FF7058;" d="M413.502,205.096H98.498c-9.22,0-16.696-7.475-16.696-16.696v-61.839
		c0-9.22,7.475-16.696,16.696-16.696h315.005c9.22,0,16.696,7.475,16.696,16.696V188.4
		C430.198,197.62,422.724,205.096,413.502,205.096z"/>
</g>
<g>
	<path style="fill:#F1543F;" d="M413.502,109.866H256.001v95.23h157.503c9.22,0,16.696-7.475,16.696-16.696v-61.839
		C430.198,117.341,422.724,109.866,413.502,109.866z"/>
	<path style="fill:#F1543F;" d="M413.502,306.423H256.001v107.03c23.641,0,42.876,19.233,42.876,42.876v38.977
		c0,9.22,7.475,16.696,16.696,16.696h97.931c9.22,0,16.696-7.475,16.696-16.696V323.118
		C430.198,313.898,422.724,306.423,413.502,306.423z"/>
</g>
</svg>