<?xml version="1.0" encoding="iso-8859-1"?>
<!-- Uploaded to: SVG Repo, www.svgrepo.com, Generator: SVG Repo Mixer Tools -->
<svg height="800px" width="800px" version="1.1" id="Layer_1" xmlns="http://www.w3.org/2000/svg" xmlns:xlink="http://www.w3.org/1999/xlink" 
	 viewBox="0 0 512 512" xml:space="preserve">
<g transform="translate(1 1)">
	<path style="fill:#FFE100;" d="M41.667,276.333c-5.12,0-8.533-3.413-8.533-8.533V114.2c0-5.12,3.413-8.533,8.533-8.533
		S50.2,109.08,50.2,114.2v153.6C50.2,272.92,46.787,276.333,41.667,276.333z"/>
	<path style="fill:#63D3FD;" d="M58.733,88.6c0,14.507-11.093,25.6-25.6,25.6s-25.6-11.093-25.6-25.6S18.627,63,33.133,63
		S58.733,74.093,58.733,88.6"/>
	<path style="fill:#FFFFFF;" d="M24.6,88.6c0-11.093,6.827-20.48,17.067-23.893C39.107,63.853,36.547,63,33.133,63
		c-14.507,0-25.6,11.093-25.6,25.6s11.093,25.6,25.6,25.6c3.413,0,5.973-0.853,8.533-1.707C31.427,109.08,24.6,99.693,24.6,88.6"/>
	<path style="fill:#FFE100;" d="M400.067,267.8H84.333v-85.333c0-14.507,11.947-25.6,25.6-25.6H257.56
		c35.84,0,69.973,17.067,91.307,45.227L400.067,267.8z"/>
	<path style="fill:#FFA800;" d="M349.72,202.093c-22.187-28.16-56.32-45.227-92.16-45.227h-25.6
		c35.84,0,69.973,17.067,91.307,45.227l51.2,65.707h25.6L349.72,202.093z"/>
	<g>
		<path style="fill:#FDCC00;" d="M260.12,267.8h35.84l-15.36-46.933c-2.56-8.533-12.8-13.653-21.333-11.093
			c-8.533,2.56-13.653,12.8-11.093,21.333L260.12,267.8z"/>
		<path style="fill:#FDCC00;" d="M140.653,267.8h36.693l-17.067-46.933c-3.413-8.533-12.8-13.653-22.187-10.24
			c-8.533,3.413-13.653,12.8-10.24,22.187L140.653,267.8z"/>
	</g>
	<g>
		<path style="fill:#00DA6C;" d="M152.6,395.8c0,28.16-23.04,51.2-51.2,51.2s-51.2-23.04-51.2-51.2s23.04-51.2,51.2-51.2
			S152.6,367.64,152.6,395.8"/>
		<path style="fill:#00DA6C;" d="M459.8,395.8c0,28.16-23.04,51.2-51.2,51.2c-28.16,0-51.2-23.04-51.2-51.2s23.04-51.2,51.2-51.2
			C436.76,344.6,459.8,367.64,459.8,395.8"/>
	</g>
	<path style="fill:#00AD55;" d="M408.6,344.6c-4.267,0-8.533,0.853-12.8,1.707c22.187,5.973,38.4,25.6,38.4,49.493
		c0,23.893-16.213,43.52-38.4,49.493c4.267,0.853,8.533,1.707,12.8,1.707c28.16,0,51.2-23.04,51.2-51.2S436.76,344.6,408.6,344.6"/>
	<path style="fill:#FFFFFF;" d="M101.4,344.6c4.267,0,8.533,0.853,12.8,1.707c-22.187,5.973-38.4,25.6-38.4,49.493
		c0,23.893,16.213,43.52,38.4,49.493c-4.267,0.853-8.533,1.707-12.8,1.707c-28.16,0-51.2-23.04-51.2-51.2S73.24,344.6,101.4,344.6"
		/>
	<path style="fill:#FFE100;" d="M7.533,286.573v90.453c0,10.24,8.533,18.773,18.773,18.773H50.2c0-28.16,23.04-51.2,51.2-51.2
		s51.2,23.04,51.2,51.2h204.8c0-28.16,23.04-51.2,51.2-51.2c28.16,0,51.2,23.04,51.2,51.2h23.893
		c10.24,0,18.773-8.533,18.773-18.773v-90.453c0-10.24-8.533-18.773-18.773-18.773H26.307C16.067,267.8,7.533,276.333,7.533,286.573
		"/>
	<path style="fill:#FFA800;" d="M483.693,267.8h-25.6c10.24,0,18.773,8.533,18.773,18.773v90.453c0,9.387-7.68,17.92-17.067,18.773
		l0,0h23.893c10.24,0,18.773-8.533,18.773-18.773v-90.453C502.467,276.333,493.933,267.8,483.693,267.8"/>
	<path style="fill:#FFFFFF;" d="M26.307,267.8h25.6c-10.24,0-18.773,8.533-18.773,18.773v90.453c0,9.387,7.68,17.92,17.067,18.773
		l0,0H26.307c-10.24,0-18.773-8.533-18.773-18.773v-90.453C7.533,276.333,16.067,267.8,26.307,267.8"/>
	<path style="fill:#63D3FD;" d="M502.467,336.067h-25.6c-9.387,0-17.067-7.68-17.067-17.067c0-9.387,7.68-17.067,17.067-17.067h25.6
		V336.067z"/>
	<path d="M101.4,455.533c-33.28,0-59.733-26.453-59.733-59.733s26.453-59.733,59.733-59.733s59.733,26.453,59.733,59.733
		S134.68,455.533,101.4,455.533z M101.4,353.133c-23.893,0-42.667,18.773-42.667,42.667c0,23.893,18.773,42.667,42.667,42.667
		s42.667-18.773,42.667-42.667C144.067,371.907,125.293,353.133,101.4,353.133z"/>
	<path d="M408.6,455.533c-33.28,0-59.733-26.453-59.733-59.733s26.453-59.733,59.733-59.733s59.733,26.453,59.733,59.733
		S441.88,455.533,408.6,455.533z M408.6,353.133c-23.893,0-42.667,18.773-42.667,42.667c0,23.893,18.773,42.667,42.667,42.667
		c23.893,0,42.667-18.773,42.667-42.667C451.267,371.907,432.493,353.133,408.6,353.133z"/>
	<path d="M41.667,319H7.533C2.413,319-1,315.587-1,310.467c0-5.12,3.413-8.533,8.533-8.533h34.133c5.12,0,8.533,3.413,8.533,8.533
		C50.2,315.587,46.787,319,41.667,319z"/>
	<path d="M483.693,404.333h-32.427V395.8c0-23.893-18.773-42.667-42.667-42.667c-23.893,0-42.667,18.773-42.667,42.667v8.533
		H144.067V395.8c0-23.893-18.773-42.667-42.667-42.667S58.733,371.907,58.733,395.8v8.533H26.307
		C10.947,404.333-1,392.387-1,377.027v-90.453c0-15.36,11.947-27.307,27.307-27.307h457.387c15.36,0,27.307,11.947,27.307,27.307
		v90.453C511,392.387,499.053,404.333,483.693,404.333z M467.48,387.267h16.213c5.973,0,10.24-4.267,10.24-10.24v-90.453
		c0-5.973-4.267-10.24-10.24-10.24H26.307c-5.973,0-10.24,4.267-10.24,10.24v90.453c0,5.973,4.267,10.24,10.24,10.24H42.52
		c4.267-29.013,29.013-51.2,58.88-51.2s54.613,22.187,58.88,51.2h188.587c4.267-29.013,29.013-51.2,58.88-51.2
		S463.213,358.253,467.48,387.267z"/>
	<path d="M297.667,319H255c-5.12,0-8.533-3.413-8.533-8.533c0-5.12,3.413-8.533,8.533-8.533h42.667c5.12,0,8.533,3.413,8.533,8.533
		C306.2,315.587,302.787,319,297.667,319z"/>
	<path d="M109.933,395.8c0,5.12-3.413,8.533-8.533,8.533c-5.12,0-8.533-3.413-8.533-8.533s3.413-8.533,8.533-8.533
		C106.52,387.267,109.933,390.68,109.933,395.8"/>
	<path d="M417.133,395.8c0,5.12-3.413,8.533-8.533,8.533c-5.12,0-8.533-3.413-8.533-8.533s3.413-8.533,8.533-8.533
		C413.72,387.267,417.133,390.68,417.133,395.8"/>
	<path d="M33.133,276.333c-5.12,0-8.533-3.413-8.533-8.533V114.2c0-5.12,3.413-8.533,8.533-8.533s8.533,3.413,8.533,8.533v153.6
		C41.667,272.92,38.253,276.333,33.133,276.333z"/>
	<path d="M502.467,344.6h-25.6c-14.507,0-25.6-11.093-25.6-25.6c0-14.507,11.093-25.6,25.6-25.6h25.6
		c5.12,0,8.533,3.413,8.533,8.533v34.133C511,341.187,507.587,344.6,502.467,344.6z M476.867,310.467
		c-5.12,0-8.533,3.413-8.533,8.533c0,5.12,3.413,8.533,8.533,8.533h17.067v-17.067H476.867z"/>
	<path d="M255,327.533c-5.12,0-8.533-3.413-8.533-8.533v-8.533c0-5.12,3.413-8.533,8.533-8.533s8.533,3.413,8.533,8.533V319
		C263.533,324.12,260.12,327.533,255,327.533z"/>
	<path d="M297.667,327.533c-5.12,0-8.533-3.413-8.533-8.533v-8.533c0-5.12,3.413-8.533,8.533-8.533s8.533,3.413,8.533,8.533V319
		C306.2,324.12,302.787,327.533,297.667,327.533z"/>
	<path d="M307.907,276.333h-53.76l-13.653-41.813c-4.267-13.653,2.56-28.16,16.213-32.427c13.653-4.267,28.16,2.56,32.427,16.213
		L307.907,276.333z M266.093,259.267h17.92l-11.947-34.987c-1.707-4.267-5.973-6.827-11.093-5.12
		c-4.267,1.707-6.827,5.973-5.12,11.093L266.093,259.267z"/>
	<path d="M189.293,276.333H134.68l-14.507-40.96c-5.12-13.653,1.707-28.16,15.36-32.427c6.827-2.56,13.653-1.707,19.627,0.853
		c5.973,2.56,11.093,7.68,12.8,14.507L189.293,276.333z M146.627,259.267h17.92l-12.8-34.987c-0.853-1.707-2.56-3.413-4.267-5.12
		c-1.707-0.853-4.267-0.853-6.827,0c-4.267,1.707-6.827,6.827-5.12,11.093L146.627,259.267z"/>
	<path d="M400.067,276.333H84.333c-5.12,0-8.533-3.413-8.533-8.533v-85.333c0-18.773,15.36-34.133,34.133-34.133H257.56
		c38.4,0,75.093,17.92,98.133,48.64l50.347,65.707c1.707,2.56,2.56,5.973,0.853,9.387
		C406.04,274.627,403.48,276.333,400.067,276.333z M92.867,259.267H383l-40.107-52.053c-20.48-26.453-52.053-41.813-84.48-41.813
		h-148.48c-9.387,0-17.067,7.68-17.067,17.067V259.267z"/>
	<path d="M33.133,122.733C14.36,122.733-1,107.373-1,88.6s15.36-34.133,34.133-34.133S67.267,69.827,67.267,88.6
		S51.907,122.733,33.133,122.733z M33.133,71.533c-9.387,0-17.067,7.68-17.067,17.067s7.68,17.067,17.067,17.067
		S50.2,97.987,50.2,88.6S42.52,71.533,33.133,71.533z"/>
</g>
</svg>