<?xml version="1.0" encoding="iso-8859-1"?>
<!-- Uploaded to: SVG Repo, www.svgrepo.com, Generator: SVG Repo Mixer Tools -->
<svg height="800px" width="800px" version="1.1" id="Layer_1" xmlns="http://www.w3.org/2000/svg" xmlns:xlink="http://www.w3.org/1999/xlink" 
	 viewBox="0 0 511.998 511.998" xml:space="preserve">
<path style="fill:#10BAFC;" d="M480.63,180.752c0,16.156-13.098,29.254-29.254,29.254H60.622c-16.157,0-29.254-13.099-29.254-29.254
	l0,0c0-16.158,13.098-29.254,29.254-29.254h390.754C467.532,151.498,480.63,164.594,480.63,180.752L480.63,180.752z"/>
<path style="fill:#FFD41D;" d="M250.337,408.539c0-30.601,18.894-56.774,45.646-67.537c-9.044-3.387-18.831-5.25-29.058-5.25
	c-45.777,0-82.886,37.111-82.886,82.888s37.109,82.886,82.886,82.886c20.753,0,39.708-7.644,54.25-20.247
	C281.878,480.243,250.337,448.086,250.337,408.539z"/>
<g>
	<polygon style="fill:#FF1A1A;" points="155.698,256.323 169.177,283.637 199.318,288.016 177.508,309.275 182.656,339.296 
		155.698,325.123 128.737,339.296 133.888,309.275 112.077,288.016 142.218,283.637 	"/>
	<polygon style="fill:#FF1A1A;" points="356.3,256.323 369.779,283.637 399.92,288.016 378.11,309.275 383.258,339.296 
		356.3,325.123 329.339,339.296 334.49,309.275 312.679,288.016 342.819,283.637 	"/>
</g>
<g>
	<polygon style="fill:#10BAFC;" points="55.398,360.976 69.287,389.121 100.348,393.635 77.872,415.541 83.18,446.476 
		55.398,431.873 27.616,446.476 32.923,415.541 10.446,393.635 41.508,389.121 	"/>
	<polygon style="fill:#10BAFC;" points="456.599,360.976 470.489,389.121 501.549,393.635 479.074,415.541 484.381,446.476 
		456.599,431.873 428.817,446.476 434.125,415.541 411.648,393.635 442.71,389.121 	"/>
</g>
<path d="M55.354,319.691c0.015,0,0.029,0,0.044,0c5.75,0,10.423-4.649,10.447-10.404l0.001-0.244
	c0.024-5.77-4.635-10.468-10.404-10.492c-0.015,0-0.029,0-0.045,0c-5.75,0-10.423,4.649-10.447,10.404l-0.001,0.245
	C44.925,314.969,49.583,319.667,55.354,319.691z"/>
<path d="M321.45,470.834c-34.019-0.897-60.665-28.261-60.665-62.296c0-25.584,15.347-48.288,39.098-57.843
	c3.999-1.609,6.599-5.508,6.548-9.819c-0.051-4.31-2.746-8.146-6.783-9.658c-10.477-3.924-21.487-5.915-32.723-5.915
	c-51.465,0-93.334,41.87-93.334,93.336c0,51.465,41.869,93.334,93.334,93.334c22.432,0,44.128-8.097,61.092-22.8
	c3.258-2.824,4.447-7.358,2.993-11.418C329.557,473.698,325.76,470.948,321.45,470.834z M266.925,491.078
	c-39.943,0-72.438-32.495-72.438-72.438c0-39.944,32.495-72.44,72.438-72.44c0.322,0,0.643,0.002,0.964,0.006
	c-17.54,15.479-28.001,37.924-28.001,62.333c0,21.844,8.4,42.48,23.654,58.109c8.468,8.675,18.529,15.281,29.536,19.534
	C284.801,489.393,275.939,491.078,266.925,491.078z"/>
<path d="M389.335,312.923l17.876-17.425c2.848-2.776,3.873-6.928,2.644-10.71c-1.229-3.782-4.499-6.538-8.435-7.111l-24.705-3.589
	l-9.969-20.203v-33.429h79.403v54.743c0,5.77,4.678,10.448,10.448,10.448s10.448-4.678,10.448-10.448v-57.974
	c14.12-6.09,24.031-20.144,24.031-36.472c0-21.892-17.811-39.702-39.702-39.702H266.446v-20.75
	c28.45-4.968,50.15-29.828,50.15-59.678c0-33.414-27.185-60.598-60.598-60.598S195.4,27.21,195.4,60.623
	c0,29.85,21.7,54.711,50.15,59.678v20.75H60.622c-21.892,0-39.702,17.811-39.702,39.702c0,16.328,9.91,30.381,24.029,36.472v57.974
	c0,5.77,4.678,10.448,10.448,10.448s10.448-4.678,10.448-10.448v-54.743h79.406v33.431l-9.97,20.202l-24.705,3.589
	c-3.936,0.572-7.205,3.329-8.435,7.111c-1.229,3.783-0.204,7.935,2.644,10.71l17.878,17.425l-4.222,24.607
	c-0.673,3.919,0.938,7.881,4.156,10.219c1.82,1.323,3.975,1.996,6.142,1.996c1.662,0,3.332-0.396,4.86-1.2l22.098-11.618
	l22.096,11.618c3.52,1.851,7.786,1.543,11.003-0.795c3.218-2.337,4.829-6.299,4.157-10.219l-4.22-24.608l17.876-17.425
	c2.848-2.776,3.873-6.928,2.644-10.71c-1.229-3.782-4.499-6.538-8.435-7.111l-24.705-3.589l-9.969-20.201v-33.431h79.403v50.564
	c0,5.77,4.678,10.448,10.448,10.448s10.448-4.678,10.448-10.448v-50.564h79.406v33.433l-9.969,20.2l-24.705,3.589
	c-3.936,0.572-7.206,3.329-8.435,7.111c-1.229,3.783-0.204,7.935,2.644,10.71l17.877,17.425l-4.222,24.607
	c-0.673,3.919,0.938,7.881,4.156,10.219c1.82,1.323,3.975,1.996,6.142,1.996c1.662,0,3.332-0.396,4.86-1.2l22.098-11.618
	l22.096,11.618c3.521,1.851,7.787,1.543,11.003-0.795c3.217-2.337,4.829-6.299,4.157-10.219L389.335,312.923z M216.296,60.622
	c0-21.892,17.811-39.702,39.702-39.702c21.892,0,39.702,17.811,39.702,39.702s-17.811,39.702-39.702,39.702
	S216.296,82.514,216.296,60.622z M176.866,295.312l-6.65,6.482c-2.463,2.4-3.587,5.858-3.005,9.249l1.57,9.156l-8.22-4.322
	c-1.522-0.8-3.192-1.2-4.862-1.2c-1.67,0-3.34,0.4-4.861,1.2l-8.221,4.322l1.571-9.156c0.582-3.389-0.542-6.849-3.005-9.249
	l-6.65-6.482l9.19-1.335c3.403-0.494,6.345-2.632,7.866-5.715l4.111-8.33l4.111,8.329c1.521,3.084,4.463,5.222,7.866,5.716
	L176.866,295.312z M60.622,161.946h390.754c10.37,0,18.806,8.437,18.806,18.806s-8.437,18.806-18.806,18.806H60.622
	c-10.37,0-18.806-8.437-18.806-18.806C41.815,170.382,50.251,161.946,60.622,161.946z M370.817,301.794
	c-2.463,2.4-3.587,5.858-3.005,9.249l1.57,9.156l-8.22-4.322c-1.522-0.8-3.192-1.2-4.862-1.2c-1.67,0-3.34,0.4-4.861,1.2
	l-8.221,4.322l1.57-9.156c0.582-3.389-0.542-6.849-3.005-9.249l-6.65-6.482l9.19-1.335c3.403-0.494,6.345-2.632,7.866-5.715
	l4.111-8.33l4.111,8.329c1.522,3.084,4.463,5.222,7.866,5.716l9.19,1.335L370.817,301.794z"/>
<path d="M101.851,383.296l-25.626-3.725l-10.379-21.032v-15.496c0-5.77-4.678-10.448-10.448-10.448s-10.448,4.678-10.448,10.448
	v15.494l-10.38,21.034l-25.626,3.725c-3.936,0.572-7.205,3.329-8.434,7.111c-1.229,3.783-0.204,7.934,2.644,10.71l18.542,18.072
	l-4.379,25.52c-0.672,3.919,0.939,7.881,4.156,10.219s7.483,2.646,11.003,0.796l22.921-12.049l22.921,12.049
	c1.529,0.803,3.197,1.199,4.86,1.199c2.166,0,4.322-0.674,6.142-1.996c3.217-2.338,4.828-6.299,4.156-10.219l-4.379-25.52
	l18.542-18.072c2.848-2.776,3.873-6.927,2.644-10.71C109.056,386.625,105.786,383.868,101.851,383.296z M70.58,408.06
	c-2.463,2.4-3.587,5.859-3.005,9.249l1.728,10.07l-9.044-4.754c-1.522-0.8-3.192-1.199-4.861-1.199s-3.339,0.4-4.861,1.199
	l-9.044,4.754l1.728-10.07c0.582-3.389-0.542-6.849-3.005-9.249l-7.315-7.13l10.11-1.47c3.403-0.495,6.344-2.632,7.866-5.716
	l4.521-9.16l4.521,9.16c1.521,3.084,4.463,5.221,7.866,5.716l10.11,1.47L70.58,408.06z"/>
<path d="M511.487,390.407c-1.229-3.782-4.499-6.539-8.434-7.111l-25.626-3.725l-10.379-21.032v-15.496
	c0-5.77-4.678-10.448-10.448-10.448s-10.448,4.678-10.448,10.448v15.494l-10.38,21.034l-25.626,3.725
	c-3.936,0.572-7.205,3.329-8.434,7.111c-1.229,3.783-0.204,7.934,2.644,10.71l18.542,18.072l-4.379,25.52
	c-0.672,3.919,0.938,7.881,4.156,10.219c3.217,2.338,7.483,2.646,11.003,0.796l22.921-12.049l22.921,12.049
	c1.529,0.803,3.197,1.199,4.86,1.199c2.166,0,4.322-0.674,6.142-1.996c3.217-2.338,4.828-6.299,4.156-10.219l-4.379-25.52
	l18.542-18.072C511.69,398.342,512.715,394.19,511.487,390.407z M471.781,408.06c-2.463,2.4-3.587,5.859-3.005,9.249l1.728,10.07
	l-9.044-4.754c-1.522-0.8-3.192-1.199-4.861-1.199s-3.339,0.4-4.861,1.199l-9.044,4.754l1.728-10.07
	c0.582-3.389-0.542-6.849-3.005-9.249l-7.315-7.13l10.111-1.47c3.403-0.495,6.344-2.632,7.866-5.716l4.521-9.16l4.521,9.16
	c1.521,3.084,4.463,5.221,7.866,5.716l10.111,1.47L471.781,408.06z"/>
<path d="M255.999,315.512c5.75,0,10.423-4.649,10.447-10.404l0.001-0.245c0.024-5.77-4.635-10.468-10.404-10.492
	c-0.015,0-0.029,0-0.045,0c-5.75,0-10.423,4.649-10.447,10.404l-0.001,0.244c-0.024,5.77,4.635,10.468,10.405,10.492
	C255.969,315.512,255.984,315.512,255.999,315.512z"/>
<path d="M456.643,298.55c-0.015,0-0.029,0-0.045,0c-5.75,0-10.423,4.649-10.447,10.404l-0.001,0.245
	c-0.024,5.77,4.635,10.468,10.405,10.492c0.015,0,0.029,0,0.044,0c5.75,0,10.423-4.649,10.447-10.404l0.001-0.244
	C467.071,303.272,462.414,298.574,456.643,298.55z"/>
</svg>