<?xml version="1.0" encoding="iso-8859-1"?>
<!-- Uploaded to: SVG Repo, www.svgrepo.com, Generator: SVG Repo Mixer Tools -->
<svg height="800px" width="800px" version="1.1" id="Layer_1" xmlns="http://www.w3.org/2000/svg" xmlns:xlink="http://www.w3.org/1999/xlink" 
	 viewBox="0 0 512 512" xml:space="preserve">
<path style="fill:#2BA5F7;" d="M490.261,196.27c13.996,11.581,14.841,32.769,1.999,45.625
	c-11.353,11.339-29.401,12.037-41.773,1.825c-51.717-42.659-115.994-65.861-183.801-65.861S134.603,201.06,82.886,243.72
	c-12.372,10.212-30.421,9.514-41.774-1.825c-6.079-6.092-9.098-14.036-9.098-21.967c0-8.803,3.73-17.566,11.098-23.658
	c62.841-52.012,141.048-80.313,223.575-80.313C349.2,115.957,427.42,144.258,490.261,196.27z"/>
<path style="fill:#2197D8;" d="M82.711,215.056c-6.079-6.092-9.098-14.036-9.098-21.967c0-8.803,3.73-17.566,11.098-23.658
	c4.365-3.614,8.812-7.1,13.322-10.483c-19.309,10.6-37.695,23.063-54.922,37.321c-7.367,6.092-11.098,14.855-11.098,23.658
	c0,7.931,3.019,15.875,9.098,21.967c11.353,11.339,29.401,12.037,41.774,1.825c8.912-7.351,18.206-14.11,27.816-20.286
	C100.839,225.424,90.286,222.623,82.711,215.056z"/>
<path style="fill:#9AD14B;" d="M266.687,283.749c29.643,0,53.676,24.034,53.676,53.676c0,29.656-24.034,53.676-53.676,53.676
	c-29.643,0-53.676-24.02-53.676-53.676C213.01,307.782,237.044,283.749,266.687,283.749z"/>
<path style="fill:#90BC42;" d="M253.272,337.425c0-22.521,13.879-41.792,33.546-49.758c-6.218-2.519-13.01-3.918-20.131-3.918
	c-29.643,0-53.676,24.034-53.676,53.676c0,29.656,24.034,53.676,53.676,53.676c7.122,0,13.913-1.398,20.131-3.916
	C267.151,379.223,253.272,359.957,253.272,337.425z"/>
<polygon style="fill:#F95428;" points="155.134,414.866 119.01,450.064 127.531,499.782 82.886,476.312 38.241,499.782 
	46.775,450.064 10.651,414.866 60.57,407.606 82.886,362.371 105.215,407.606 "/>
<path style="fill:#F7B239;" d="M450.487,362.371c19.78,0,37.64,8.253,50.335,21.497c-26.382,0.349-47.651,21.819-47.651,48.282
	c0,26.462,21.269,47.946,47.651,48.295c-12.694,13.231-30.555,21.484-50.335,21.484c-38.54,0-69.779-31.24-69.779-69.779
	C380.708,393.624,411.948,362.371,450.487,362.371z"/>
<path style="fill:#FFFFFF;" d="M472.288,228.043c-2.261,0-4.534-0.757-6.412-2.311c-50.937-42.161-112.626-66.667-178.393-70.87
	c-5.547-0.354-9.757-5.139-9.401-10.686c0.354-5.546,5.106-9.76,10.686-9.403c70.031,4.475,135.715,30.566,189.944,75.451
	c4.281,3.544,4.881,9.889,1.335,14.171C478.057,226.801,475.184,228.043,472.288,228.043z"/>
<path style="fill:#333333;" d="M500.958,393.928c4.008-0.054,7.602-2.48,9.15-6.178c1.547-3.697,0.753-7.962-2.022-10.853
	c-12.855-13.398-29.466-21.682-47.54-23.936v-93.158c13.572,3.372,28.332-0.302,38.827-10.796c8.167-8.167,12.54-19.47,11.997-31.01
	c-0.538-11.45-5.895-22.196-14.694-29.48c-32.227-26.673-68.367-47.325-107.418-61.379c-36.048-12.974-73.85-20.045-112.509-21.093
	V10.064C276.748,4.506,272.243,0,266.684,0c-5.56,0-10.064,4.506-10.064,10.064v95.98c-38.659,1.048-76.462,8.12-112.509,21.093
	c-39.049,14.054-75.19,34.704-107.415,61.379c-8.8,7.284-14.154,18.028-14.694,29.479c-0.543,11.54,3.83,22.845,11.998,31.011
	c7.976,7.976,18.416,12.018,28.927,12.018c3.319,0,6.641-0.421,9.898-1.231v100.235L53.882,398.41l-44.68,6.492
	c-3.791,0.55-6.94,3.206-8.124,6.849c-1.184,3.643-0.196,7.642,2.547,10.317l32.331,31.515l-7.633,44.5
	c-0.647,3.775,0.904,7.591,4.004,9.843c1.754,1.273,3.83,1.922,5.916,1.922c1.601,0,3.21-0.382,4.682-1.155l39.962-21.01
	l39.963,21.01c3.394,1.783,7.501,1.485,10.598-0.766c3.1-2.252,4.651-6.068,4.004-9.843l-7.633-44.5l32.331-31.515
	c2.743-2.674,3.73-6.673,2.547-10.317c-1.184-3.643-4.333-6.299-8.124-6.849l-44.68-6.492l-18.942-38.381V248.53
	c47.091-37.573,103.392-58.333,163.667-60.413v86.376c-30.381,4.84-53.676,31.217-53.676,62.938
	c0,35.146,28.593,63.741,63.741,63.741s63.741-28.595,63.741-63.741c0-31.721-23.296-58.098-53.676-62.938v-86.376
	c60.274,2.079,116.577,22.839,163.67,60.413v104.439c-39.288,4.968-69.779,38.572-69.779,79.187
	c0,44.027,35.817,79.843,79.843,79.843c21.933,0,42.391-8.73,57.603-24.582c2.775-2.892,3.571-7.156,2.024-10.853
	c-1.547-3.697-5.142-6.124-9.15-6.178c-20.802-0.276-37.726-17.425-37.726-38.228S480.156,394.204,500.958,393.928z M48.231,234.774
	c-4.169-4.169-6.401-9.939-6.123-15.833c0.276-5.888,2.912-11.186,7.422-14.918c61.651-51.03,136.743-78.002,217.155-78.002
	s155.504,26.974,217.156,78.002c4.509,3.733,7.144,9.031,7.422,14.919c0.276,5.892-1.955,11.662-6.124,15.832
	c-7.646,7.649-19.794,8.16-28.252,1.184c-54.056-44.589-119.828-68.157-190.202-68.157c-70.375,0-136.144,23.568-190.2,68.157
	C68.028,242.933,55.881,242.425,48.231,234.774z M103.766,417.569l29.735,4.321l-21.517,20.974
	c-2.372,2.312-3.454,5.644-2.894,8.908l5.079,29.616l-26.597-13.983c-1.467-0.77-3.076-1.155-4.683-1.155s-3.217,0.385-4.683,1.155
	L51.61,481.387l5.079-29.616c0.56-3.265-0.522-6.595-2.894-8.908L32.277,421.89l29.737-4.321c3.278-0.476,6.112-2.535,7.578-5.506
	l13.298-26.945l13.298,26.945C97.653,415.034,100.488,417.092,103.766,417.569z M310.297,337.433
	c0,24.047-19.564,43.612-43.612,43.612c-24.047,0-43.612-19.565-43.612-43.612c0-24.047,19.564-43.612,43.612-43.612
	C290.734,293.821,310.297,313.385,310.297,337.433z M477.619,485.381c-8.29,4.247-17.524,6.489-27.137,6.489
	c-32.926,0-59.715-26.787-59.715-59.715s26.788-59.715,59.715-59.715c9.613,0,18.848,2.244,27.137,6.489
	c-20.303,9.18-34.518,29.667-34.518,53.225C443.102,455.712,457.318,476.199,477.619,485.381z"/>
<g>
	<circle style="fill:#FFFFFF;" cx="105.716" cy="428.122" r="10.064"/>
	<circle style="fill:#FFFFFF;" cx="284.189" cy="322.111" r="10.064"/>
	<circle style="fill:#FFFFFF;" cx="440.521" cy="389.206" r="10.064"/>
</g>
</svg>