<?xml version="1.0" encoding="iso-8859-1"?>
<!-- Uploaded to: SVG Repo, www.svgrepo.com, Generator: SVG Repo Mixer Tools -->
<svg height="800px" width="800px" version="1.1" id="Layer_1" xmlns="http://www.w3.org/2000/svg" xmlns:xlink="http://www.w3.org/1999/xlink" 
	 viewBox="0 0 512 512" xml:space="preserve">
<path style="fill:#3A5D74;" d="M236.369,323.696h-75.883c-4.684,0-8.479-3.797-8.479-8.479c0-4.683,3.795-8.479,8.479-8.479h75.883
	c7.248,0,13.146-5.897,13.146-13.145v-62.078c0-4.683,3.795-8.479,8.479-8.479c4.684,0,8.479,3.797,8.479,8.479v62.078
	C266.474,310.191,252.969,323.696,236.369,323.696z"/>
<path style="fill:#D33F2F;" d="M201.833,257.128l-61.271,137.079c0,0-17.419,32.437-61.42,32.437c-39.646,0-22.676,0-22.676,0
	s-27.632,2.401-27.632-27.633v-22.974c0,0,88.149-72.476,28.68-118.91"/>
<path style="opacity:0.1;fill:#231F20;enable-background:new    ;" d="M85.718,257.128H57.513
	c59.469,46.432-28.68,118.91-28.68,118.91v22.974c0,1.411,0.079,2.728,0.196,4C44.598,389.828,127.691,315.183,85.718,257.128z"/>
<path style="fill:#3A5D74;" d="M490.375,154.341h-22.827v1.801v86.499v1.802h22.827c11.942,0,21.625-9.681,21.625-21.625v-46.853
	C512,164.022,502.319,154.341,490.375,154.341z"/>
<polygon style="opacity:0.1;fill:#231F20;enable-background:new    ;" points="485.638,156.142 485.638,154.341 467.549,154.341 
	467.549,156.142 467.549,242.641 467.549,244.442 485.638,244.442 485.638,242.641 "/>
<path style="fill:#3A5D74;" d="M81.694,85.31h-9.61c-11.944,0-21.627,9.682-21.627,21.625v34.718h52.864v-34.718
	C103.321,94.993,93.635,85.31,81.694,85.31z"/>
<path style="opacity:0.1;fill:#231F20;enable-background:new    ;" d="M85.934,85.732c-1.371-0.272-2.788-0.422-4.24-0.422h-9.61
	c-11.944,0-21.627,9.682-21.627,21.625v34.718h18.089v-34.718C68.547,96.444,76.02,87.704,85.934,85.732z"/>
<path style="fill:#FF4D30;" d="M264.768,140.524H21.625C9.682,140.524,0,150.205,0,162.15v74.484
	c0,11.942,9.682,21.625,21.625,21.625H337.59V140.524H264.768"/>
<path style="fill:#D33F2F;" d="M201.833,207.871H50.457c-4.684,0-8.479-3.797-8.479-8.479c0-4.683,3.795-8.479,8.479-8.479h151.376
	c4.684,0,8.479,3.797,8.479,8.479C210.312,204.074,206.516,207.871,201.833,207.871z"/>
<path style="fill:#90C8EC;" d="M370.697,105.686h-1.802c-17.913,0-32.435,14.522-32.435,32.437v-0.001v115.334v1.801
	c0,17.915,14.524,32.437,32.435,32.437h1.802c17.915,0,32.439-14.522,32.439-32.437v-1.801V138.12v0.001
	C403.136,120.208,388.612,105.686,370.697,105.686z"/>
<path style="fill:#6EB4DB;" d="M436.241,105.686h-1.801c-17.915,0-32.435,14.522-32.435,32.437v-0.001v115.334v1.801
	c0,17.915,14.521,32.437,32.435,32.437h1.801c17.913,0,32.437-14.522,32.437-32.437v-1.801V138.12v0.001
	C468.679,120.208,454.154,105.686,436.241,105.686z"/>
<g>
	<path style="opacity:0.1;fill:#231F20;enable-background:new    ;" d="M18.089,236.634V162.15c0-11.945,9.681-21.626,21.625-21.626
		H21.625C9.682,140.524,0,150.205,0,162.15v74.484c0,11.942,9.682,21.625,21.625,21.625h18.089
		C27.771,258.259,18.089,248.577,18.089,236.634z"/>
	<path style="opacity:0.1;fill:#231F20;enable-background:new    ;" d="M354.548,255.255v-1.801V138.121
		c0-15.101,10.321-27.791,24.292-31.404c-2.603-0.673-5.331-1.032-8.144-1.032h-1.802c-17.913,0-32.435,14.522-32.435,32.437
		v115.333v1.801c0,17.915,14.524,32.437,32.435,32.437h1.802c2.813,0,5.541-0.358,8.144-1.032
		C364.87,283.047,354.548,270.357,354.548,255.255z"/>
	<path style="opacity:0.1;fill:#231F20;enable-background:new    ;" d="M420.094,255.255v-1.801V138.121
		c0-15.101,10.319-27.791,24.291-31.404c-2.603-0.673-5.331-1.032-8.144-1.032h-1.801c-17.915,0-32.435,14.522-32.435,32.437
		v115.333v1.801c0,17.915,14.521,32.437,32.435,32.437h1.801c2.813,0,5.541-0.358,8.144-1.032
		C430.413,283.047,420.094,270.356,420.094,255.255z"/>
</g>
</svg>